%TF.GenerationSoftware,KiCad,Pcbnew,10.0.3*%
%TF.CreationDate,2026-06-06T21:14:59+05:30*%
%TF.ProjectId,hackpad,6861636b-7061-4642-9e6b-696361645f70,rev?*%
%TF.SameCoordinates,Original*%
%TF.FileFunction,Profile,NP*%
%FSLAX46Y46*%
G04 Gerber Fmt 4.6, Leading zero omitted, Abs format (unit mm)*
G04 Created by KiCad (PCBNEW 10.0.3) date 2026-06-06 21:14:59*
%MOMM*%
%LPD*%
G01*
G04 APERTURE LIST*
%TA.AperFunction,Profile*%
%ADD10C,0.050000*%
%TD*%
%TA.AperFunction,Profile*%
%ADD11C,0.120000*%
%TD*%
G04 APERTURE END LIST*
D10*
X82800000Y-51475000D02*
X168325000Y-51475000D01*
X168325000Y-112475000D01*
X82800000Y-112475000D01*
X82800000Y-51475000D01*
%TO.C,D10*%
D11*
X125675000Y-53725000D02*
X125675000Y-53024647D01*
X125675000Y-53725000D02*
X125675000Y-54425353D01*
X127375000Y-52225000D02*
X126474647Y-52225000D01*
X127375000Y-52225000D02*
X128275353Y-52225000D01*
X127375000Y-55225000D02*
X126474647Y-55225000D01*
X127375000Y-55225000D02*
X128275353Y-55225000D01*
X129075000Y-53725000D02*
X129075000Y-53024647D01*
X129075000Y-53725000D02*
X129075000Y-54425353D01*
X125631066Y-52868345D02*
G75*
G02*
X125674976Y-53024647I-256066J-156255D01*
G01*
X125631066Y-52868345D02*
G75*
G02*
X126318345Y-52181066I426774J260505D01*
G01*
X125675000Y-54425353D02*
G75*
G02*
X125631065Y-54581654I-299680J-87D01*
G01*
X126318345Y-55268934D02*
G75*
G02*
X125631066Y-54581655I-260505J426774D01*
G01*
X126318345Y-55268934D02*
G75*
G02*
X126474647Y-55225024I156255J-256066D01*
G01*
X126474647Y-52225000D02*
G75*
G02*
X126318344Y-52181067I3J300020D01*
G01*
X128275353Y-55225000D02*
G75*
G02*
X128431655Y-55268934I3J-299992D01*
G01*
X128431655Y-52181066D02*
G75*
G02*
X128275353Y-52225000I-156299J256058D01*
G01*
X128431655Y-52181066D02*
G75*
G02*
X129118934Y-52868345I260503J-426776D01*
G01*
X129075000Y-53024647D02*
G75*
G02*
X129118934Y-52868345I299992J3D01*
G01*
X129118934Y-54581655D02*
G75*
G02*
X128431655Y-55268934I-426776J-260503D01*
G01*
X129118934Y-54581655D02*
G75*
G02*
X129075000Y-54425353I256058J156299D01*
G01*
%TO.C,D9*%
X161300000Y-53975000D02*
X161300000Y-53274647D01*
X161300000Y-53975000D02*
X161300000Y-54675353D01*
X163000000Y-52475000D02*
X162099647Y-52475000D01*
X163000000Y-52475000D02*
X163900353Y-52475000D01*
X163000000Y-55475000D02*
X162099647Y-55475000D01*
X163000000Y-55475000D02*
X163900353Y-55475000D01*
X164700000Y-53975000D02*
X164700000Y-53274647D01*
X164700000Y-53975000D02*
X164700000Y-54675353D01*
X161256066Y-53118345D02*
G75*
G02*
X161299976Y-53274647I-256066J-156255D01*
G01*
X161256066Y-53118345D02*
G75*
G02*
X161943345Y-52431066I426774J260505D01*
G01*
X161300000Y-54675353D02*
G75*
G02*
X161256065Y-54831654I-299680J-87D01*
G01*
X161943345Y-55518934D02*
G75*
G02*
X161256066Y-54831655I-260505J426774D01*
G01*
X161943345Y-55518934D02*
G75*
G02*
X162099647Y-55475024I156255J-256066D01*
G01*
X162099647Y-52475000D02*
G75*
G02*
X161943344Y-52431067I3J300020D01*
G01*
X163900353Y-55475000D02*
G75*
G02*
X164056655Y-55518934I3J-299992D01*
G01*
X164056655Y-52431066D02*
G75*
G02*
X163900353Y-52475000I-156299J256058D01*
G01*
X164056655Y-52431066D02*
G75*
G02*
X164743934Y-53118345I260503J-426776D01*
G01*
X164700000Y-53274647D02*
G75*
G02*
X164743934Y-53118345I299992J3D01*
G01*
X164743934Y-54831655D02*
G75*
G02*
X164056655Y-55518934I-426776J-260503D01*
G01*
X164743934Y-54831655D02*
G75*
G02*
X164700000Y-54675353I256058J156299D01*
G01*
%TO.C,D2*%
X84300000Y-80175000D02*
X84300000Y-79274647D01*
X84300000Y-80175000D02*
X84300000Y-81075353D01*
X85800000Y-78475000D02*
X85099647Y-78475000D01*
X85800000Y-78475000D02*
X86500353Y-78475000D01*
X85800000Y-81875000D02*
X85099647Y-81875000D01*
X85800000Y-81875000D02*
X86500353Y-81875000D01*
X87300000Y-80175000D02*
X87300000Y-79274647D01*
X87300000Y-80175000D02*
X87300000Y-81075353D01*
X84256066Y-79118345D02*
G75*
G02*
X84300000Y-79274647I-256058J-156299D01*
G01*
X84256066Y-79118345D02*
G75*
G02*
X84943345Y-78431066I426776J260503D01*
G01*
X84300000Y-81075353D02*
G75*
G02*
X84256067Y-81231656I-300020J3D01*
G01*
X84943345Y-81918934D02*
G75*
G02*
X84256066Y-81231655I-260505J426774D01*
G01*
X84943345Y-81918934D02*
G75*
G02*
X85099647Y-81875024I156255J-256066D01*
G01*
X85099647Y-78475000D02*
G75*
G02*
X84943345Y-78431066I-3J299992D01*
G01*
X86500353Y-81875000D02*
G75*
G02*
X86656654Y-81918935I87J-299680D01*
G01*
X86656655Y-78431066D02*
G75*
G02*
X86500353Y-78475000I-156299J256058D01*
G01*
X86656655Y-78431066D02*
G75*
G02*
X87343934Y-79118345I260503J-426776D01*
G01*
X87300000Y-79274647D02*
G75*
G02*
X87343934Y-79118345I299992J3D01*
G01*
X87343934Y-81231655D02*
G75*
G02*
X86656655Y-81918934I-426774J-260505D01*
G01*
X87343934Y-81231655D02*
G75*
G02*
X87300024Y-81075353I256066J156255D01*
G01*
%TO.C,D8*%
X84400000Y-107225000D02*
X84400000Y-106324647D01*
X84400000Y-107225000D02*
X84400000Y-108125353D01*
X85900000Y-105525000D02*
X85199647Y-105525000D01*
X85900000Y-105525000D02*
X86600353Y-105525000D01*
X85900000Y-108925000D02*
X85199647Y-108925000D01*
X85900000Y-108925000D02*
X86600353Y-108925000D01*
X87400000Y-107225000D02*
X87400000Y-106324647D01*
X87400000Y-107225000D02*
X87400000Y-108125353D01*
X84356066Y-106168345D02*
G75*
G02*
X84400000Y-106324647I-256058J-156299D01*
G01*
X84356066Y-106168345D02*
G75*
G02*
X85043345Y-105481066I426776J260503D01*
G01*
X84400000Y-108125353D02*
G75*
G02*
X84356067Y-108281656I-300020J3D01*
G01*
X85043345Y-108968934D02*
G75*
G02*
X84356066Y-108281655I-260505J426774D01*
G01*
X85043345Y-108968934D02*
G75*
G02*
X85199647Y-108925024I156255J-256066D01*
G01*
X85199647Y-105525000D02*
G75*
G02*
X85043345Y-105481066I-3J299992D01*
G01*
X86600353Y-108925000D02*
G75*
G02*
X86756654Y-108968935I87J-299680D01*
G01*
X86756655Y-105481066D02*
G75*
G02*
X86600353Y-105525000I-156299J256058D01*
G01*
X86756655Y-105481066D02*
G75*
G02*
X87443934Y-106168345I260503J-426776D01*
G01*
X87400000Y-106324647D02*
G75*
G02*
X87443934Y-106168345I299992J3D01*
G01*
X87443934Y-108281655D02*
G75*
G02*
X86756655Y-108968934I-426774J-260505D01*
G01*
X87443934Y-108281655D02*
G75*
G02*
X87400024Y-108125353I256066J156255D01*
G01*
%TD*%
M02*
