%TF.GenerationSoftware,KiCad,Pcbnew,10.0.3*%
%TF.CreationDate,2026-06-06T21:14:59+05:30*%
%TF.ProjectId,hackpad,6861636b-7061-4642-9e6b-696361645f70,rev?*%
%TF.SameCoordinates,Original*%
%TF.FileFunction,Soldermask,Bot*%
%TF.FilePolarity,Negative*%
%FSLAX46Y46*%
G04 Gerber Fmt 4.6, Leading zero omitted, Abs format (unit mm)*
G04 Created by KiCad (PCBNEW 10.0.3) date 2026-06-06 21:14:59*
%MOMM*%
%LPD*%
G01*
G04 APERTURE LIST*
G04 Aperture macros list*
%AMRoundRect*
0 Rectangle with rounded corners*
0 $1 Rounding radius*
0 $2 $3 $4 $5 $6 $7 $8 $9 X,Y pos of 4 corners*
0 Add a 4 corners polygon primitive as box body*
4,1,4,$2,$3,$4,$5,$6,$7,$8,$9,$2,$3,0*
0 Add four circle primitives for the rounded corners*
1,1,$1+$1,$2,$3*
1,1,$1+$1,$4,$5*
1,1,$1+$1,$6,$7*
1,1,$1+$1,$8,$9*
0 Add four rect primitives between the rounded corners*
20,1,$1+$1,$2,$3,$4,$5,0*
20,1,$1+$1,$4,$5,$6,$7,0*
20,1,$1+$1,$6,$7,$8,$9,0*
20,1,$1+$1,$8,$9,$2,$3,0*%
G04 Aperture macros list end*
%ADD10C,2.500000*%
%ADD11R,1.700000X1.700000*%
%ADD12C,1.700000*%
%ADD13R,3.500000X1.700000*%
%ADD14O,3.600000X1.700000*%
%ADD15O,3.700000X1.700000*%
%ADD16C,4.000000*%
%ADD17C,2.200000*%
%ADD18RoundRect,0.250000X-0.550000X-0.550000X0.550000X-0.550000X0.550000X0.550000X-0.550000X0.550000X0*%
%ADD19C,1.600000*%
%ADD20R,2.000000X2.000000*%
%ADD21C,2.000000*%
%ADD22R,3.200000X2.000000*%
%ADD23RoundRect,0.205000X0.470000X0.205000X-0.470000X0.205000X-0.470000X-0.205000X0.470000X-0.205000X0*%
%ADD24RoundRect,0.205000X-0.205000X0.470000X-0.205000X-0.470000X0.205000X-0.470000X0.205000X0.470000X0*%
G04 APERTURE END LIST*
D10*
%TO.C,REF\u002A\u002A*%
X103625000Y-80675000D03*
%TD*%
D11*
%TO.C,J2*%
X110725000Y-57415000D03*
D12*
X110725000Y-59955000D03*
X110725000Y-62495000D03*
X110725000Y-65035000D03*
%TD*%
D13*
%TO.C,U1*%
X88375000Y-55880000D03*
D14*
X88375000Y-58420000D03*
X88375000Y-60960000D03*
X88375000Y-63500000D03*
X88375000Y-66040000D03*
X88375000Y-68580000D03*
X88375000Y-71120000D03*
X105625000Y-71120000D03*
X105625000Y-68580000D03*
X105625000Y-66040000D03*
D15*
X105625000Y-63500000D03*
X105625000Y-60960000D03*
X105625000Y-58420000D03*
X105625000Y-55880000D03*
%TD*%
D12*
%TO.C,SW9*%
X132695000Y-101125000D03*
D16*
X137775000Y-101125000D03*
D12*
X142855000Y-101125000D03*
D17*
X140315000Y-96045000D03*
X133965000Y-98585000D03*
%TD*%
D18*
%TO.C,D3*%
X99190000Y-91300000D03*
D19*
X106810000Y-91300000D03*
%TD*%
D18*
%TO.C,D5*%
X99190000Y-94850000D03*
D19*
X106810000Y-94850000D03*
%TD*%
D18*
%TO.C,D7*%
X99190000Y-101950000D03*
D19*
X106810000Y-101950000D03*
%TD*%
D18*
%TO.C,D22*%
X99190000Y-105500000D03*
D19*
X106810000Y-105500000D03*
%TD*%
D18*
%TO.C,D99*%
X99190000Y-109050000D03*
D19*
X106810000Y-109050000D03*
%TD*%
D10*
%TO.C,REF\u002A\u002A*%
X145725000Y-61975000D03*
%TD*%
D18*
%TO.C,D6*%
X99190000Y-98400000D03*
D19*
X106810000Y-98400000D03*
%TD*%
D12*
%TO.C,SW3*%
X132620000Y-82025000D03*
D16*
X137700000Y-82025000D03*
D12*
X142780000Y-82025000D03*
D17*
X140240000Y-76945000D03*
X133890000Y-79485000D03*
%TD*%
D12*
%TO.C,SW5*%
X151820000Y-82075000D03*
D16*
X156900000Y-82075000D03*
D12*
X161980000Y-82075000D03*
D17*
X159440000Y-76995000D03*
X153090000Y-79535000D03*
%TD*%
D12*
%TO.C,SW2*%
X113520000Y-101125000D03*
D16*
X118600000Y-101125000D03*
D12*
X123680000Y-101125000D03*
D17*
X121140000Y-96045000D03*
X114790000Y-98585000D03*
%TD*%
D18*
%TO.C,D1*%
X99190000Y-87750000D03*
D19*
X106810000Y-87750000D03*
%TD*%
D20*
%TO.C,SW4*%
X150250000Y-61500000D03*
D21*
X150250000Y-66500000D03*
X150250000Y-64000000D03*
D22*
X157750000Y-58400000D03*
X157750000Y-69600000D03*
D21*
X164750000Y-66500000D03*
X164750000Y-61500000D03*
%TD*%
D12*
%TO.C,SW1*%
X113500000Y-82000000D03*
D16*
X118580000Y-82000000D03*
D12*
X123660000Y-82000000D03*
D17*
X121120000Y-76920000D03*
X114770000Y-79460000D03*
%TD*%
D12*
%TO.C,SW6*%
X151870000Y-101150000D03*
D16*
X156950000Y-101150000D03*
D12*
X162030000Y-101150000D03*
D17*
X159490000Y-96070000D03*
X153140000Y-98610000D03*
%TD*%
D23*
%TO.C,D10*%
X130100000Y-54475000D03*
X130100000Y-52975000D03*
X124650000Y-52975000D03*
X124650000Y-54475000D03*
%TD*%
%TO.C,D9*%
X165725000Y-54725000D03*
X165725000Y-53225000D03*
X160275000Y-53225000D03*
X160275000Y-54725000D03*
%TD*%
D24*
%TO.C,D2*%
X86550000Y-77450000D03*
X85050000Y-77450000D03*
X85050000Y-82900000D03*
X86550000Y-82900000D03*
%TD*%
%TO.C,D8*%
X86650000Y-104500000D03*
X85150000Y-104500000D03*
X85150000Y-109950000D03*
X86650000Y-109950000D03*
%TD*%
M02*
