%TF.GenerationSoftware,KiCad,Pcbnew,10.0.3*%
%TF.CreationDate,2026-06-06T21:14:59+05:30*%
%TF.ProjectId,hackpad,6861636b-7061-4642-9e6b-696361645f70,rev?*%
%TF.SameCoordinates,Original*%
%TF.FileFunction,Legend,Top*%
%TF.FilePolarity,Positive*%
%FSLAX46Y46*%
G04 Gerber Fmt 4.6, Leading zero omitted, Abs format (unit mm)*
G04 Created by KiCad (PCBNEW 10.0.3) date 2026-06-06 21:14:59*
%MOMM*%
%LPD*%
G01*
G04 APERTURE LIST*
%ADD10C,0.150000*%
%ADD11C,0.101600*%
%ADD12C,0.120000*%
%ADD13C,0.127000*%
%ADD14C,0.254000*%
%ADD15C,0.025400*%
G04 APERTURE END LIST*
D10*
X102291666Y-77679819D02*
X101958333Y-77203628D01*
X101720238Y-77679819D02*
X101720238Y-76679819D01*
X101720238Y-76679819D02*
X102101190Y-76679819D01*
X102101190Y-76679819D02*
X102196428Y-76727438D01*
X102196428Y-76727438D02*
X102244047Y-76775057D01*
X102244047Y-76775057D02*
X102291666Y-76870295D01*
X102291666Y-76870295D02*
X102291666Y-77013152D01*
X102291666Y-77013152D02*
X102244047Y-77108390D01*
X102244047Y-77108390D02*
X102196428Y-77156009D01*
X102196428Y-77156009D02*
X102101190Y-77203628D01*
X102101190Y-77203628D02*
X101720238Y-77203628D01*
X102720238Y-77156009D02*
X103053571Y-77156009D01*
X103196428Y-77679819D02*
X102720238Y-77679819D01*
X102720238Y-77679819D02*
X102720238Y-76679819D01*
X102720238Y-76679819D02*
X103196428Y-76679819D01*
X103958333Y-77156009D02*
X103625000Y-77156009D01*
X103625000Y-77679819D02*
X103625000Y-76679819D01*
X103625000Y-76679819D02*
X104101190Y-76679819D01*
X104625000Y-76679819D02*
X104625000Y-76917914D01*
X104386905Y-76822676D02*
X104625000Y-76917914D01*
X104625000Y-76917914D02*
X104863095Y-76822676D01*
X104482143Y-77108390D02*
X104625000Y-76917914D01*
X104625000Y-76917914D02*
X104767857Y-77108390D01*
X105386905Y-76679819D02*
X105386905Y-76917914D01*
X105148810Y-76822676D02*
X105386905Y-76917914D01*
X105386905Y-76917914D02*
X105625000Y-76822676D01*
X105244048Y-77108390D02*
X105386905Y-76917914D01*
X105386905Y-76917914D02*
X105529762Y-77108390D01*
X110391666Y-54489819D02*
X110391666Y-55204104D01*
X110391666Y-55204104D02*
X110344047Y-55346961D01*
X110344047Y-55346961D02*
X110248809Y-55442200D01*
X110248809Y-55442200D02*
X110105952Y-55489819D01*
X110105952Y-55489819D02*
X110010714Y-55489819D01*
X110820238Y-54585057D02*
X110867857Y-54537438D01*
X110867857Y-54537438D02*
X110963095Y-54489819D01*
X110963095Y-54489819D02*
X111201190Y-54489819D01*
X111201190Y-54489819D02*
X111296428Y-54537438D01*
X111296428Y-54537438D02*
X111344047Y-54585057D01*
X111344047Y-54585057D02*
X111391666Y-54680295D01*
X111391666Y-54680295D02*
X111391666Y-54775533D01*
X111391666Y-54775533D02*
X111344047Y-54918390D01*
X111344047Y-54918390D02*
X110772619Y-55489819D01*
X110772619Y-55489819D02*
X111391666Y-55489819D01*
D11*
X96322666Y-65556985D02*
X96322666Y-66276652D01*
X96322666Y-66276652D02*
X96365000Y-66361318D01*
X96365000Y-66361318D02*
X96407333Y-66403652D01*
X96407333Y-66403652D02*
X96492000Y-66445985D01*
X96492000Y-66445985D02*
X96661333Y-66445985D01*
X96661333Y-66445985D02*
X96746000Y-66403652D01*
X96746000Y-66403652D02*
X96788333Y-66361318D01*
X96788333Y-66361318D02*
X96830666Y-66276652D01*
X96830666Y-66276652D02*
X96830666Y-65556985D01*
X97719666Y-66445985D02*
X97211666Y-66445985D01*
X97465666Y-66445985D02*
X97465666Y-65556985D01*
X97465666Y-65556985D02*
X97380999Y-65683985D01*
X97380999Y-65683985D02*
X97296333Y-65768652D01*
X97296333Y-65768652D02*
X97211666Y-65810985D01*
D10*
X92238095Y-62407200D02*
X92380952Y-62454819D01*
X92380952Y-62454819D02*
X92619047Y-62454819D01*
X92619047Y-62454819D02*
X92714285Y-62407200D01*
X92714285Y-62407200D02*
X92761904Y-62359580D01*
X92761904Y-62359580D02*
X92809523Y-62264342D01*
X92809523Y-62264342D02*
X92809523Y-62169104D01*
X92809523Y-62169104D02*
X92761904Y-62073866D01*
X92761904Y-62073866D02*
X92714285Y-62026247D01*
X92714285Y-62026247D02*
X92619047Y-61978628D01*
X92619047Y-61978628D02*
X92428571Y-61931009D01*
X92428571Y-61931009D02*
X92333333Y-61883390D01*
X92333333Y-61883390D02*
X92285714Y-61835771D01*
X92285714Y-61835771D02*
X92238095Y-61740533D01*
X92238095Y-61740533D02*
X92238095Y-61645295D01*
X92238095Y-61645295D02*
X92285714Y-61550057D01*
X92285714Y-61550057D02*
X92333333Y-61502438D01*
X92333333Y-61502438D02*
X92428571Y-61454819D01*
X92428571Y-61454819D02*
X92666666Y-61454819D01*
X92666666Y-61454819D02*
X92809523Y-61502438D01*
X93619047Y-62407200D02*
X93523809Y-62454819D01*
X93523809Y-62454819D02*
X93333333Y-62454819D01*
X93333333Y-62454819D02*
X93238095Y-62407200D01*
X93238095Y-62407200D02*
X93190476Y-62311961D01*
X93190476Y-62311961D02*
X93190476Y-61931009D01*
X93190476Y-61931009D02*
X93238095Y-61835771D01*
X93238095Y-61835771D02*
X93333333Y-61788152D01*
X93333333Y-61788152D02*
X93523809Y-61788152D01*
X93523809Y-61788152D02*
X93619047Y-61835771D01*
X93619047Y-61835771D02*
X93666666Y-61931009D01*
X93666666Y-61931009D02*
X93666666Y-62026247D01*
X93666666Y-62026247D02*
X93190476Y-62121485D01*
X94476190Y-62407200D02*
X94380952Y-62454819D01*
X94380952Y-62454819D02*
X94190476Y-62454819D01*
X94190476Y-62454819D02*
X94095238Y-62407200D01*
X94095238Y-62407200D02*
X94047619Y-62311961D01*
X94047619Y-62311961D02*
X94047619Y-61931009D01*
X94047619Y-61931009D02*
X94095238Y-61835771D01*
X94095238Y-61835771D02*
X94190476Y-61788152D01*
X94190476Y-61788152D02*
X94380952Y-61788152D01*
X94380952Y-61788152D02*
X94476190Y-61835771D01*
X94476190Y-61835771D02*
X94523809Y-61931009D01*
X94523809Y-61931009D02*
X94523809Y-62026247D01*
X94523809Y-62026247D02*
X94047619Y-62121485D01*
X95333333Y-62407200D02*
X95238095Y-62454819D01*
X95238095Y-62454819D02*
X95047619Y-62454819D01*
X95047619Y-62454819D02*
X94952381Y-62407200D01*
X94952381Y-62407200D02*
X94904762Y-62311961D01*
X94904762Y-62311961D02*
X94904762Y-61931009D01*
X94904762Y-61931009D02*
X94952381Y-61835771D01*
X94952381Y-61835771D02*
X95047619Y-61788152D01*
X95047619Y-61788152D02*
X95238095Y-61788152D01*
X95238095Y-61788152D02*
X95333333Y-61835771D01*
X95333333Y-61835771D02*
X95380952Y-61931009D01*
X95380952Y-61931009D02*
X95380952Y-62026247D01*
X95380952Y-62026247D02*
X94904762Y-62121485D01*
X96238095Y-62454819D02*
X96238095Y-61454819D01*
X96238095Y-62407200D02*
X96142857Y-62454819D01*
X96142857Y-62454819D02*
X95952381Y-62454819D01*
X95952381Y-62454819D02*
X95857143Y-62407200D01*
X95857143Y-62407200D02*
X95809524Y-62359580D01*
X95809524Y-62359580D02*
X95761905Y-62264342D01*
X95761905Y-62264342D02*
X95761905Y-61978628D01*
X95761905Y-61978628D02*
X95809524Y-61883390D01*
X95809524Y-61883390D02*
X95857143Y-61835771D01*
X95857143Y-61835771D02*
X95952381Y-61788152D01*
X95952381Y-61788152D02*
X96142857Y-61788152D01*
X96142857Y-61788152D02*
X96238095Y-61835771D01*
X97428572Y-62407200D02*
X97571429Y-62454819D01*
X97571429Y-62454819D02*
X97809524Y-62454819D01*
X97809524Y-62454819D02*
X97904762Y-62407200D01*
X97904762Y-62407200D02*
X97952381Y-62359580D01*
X97952381Y-62359580D02*
X98000000Y-62264342D01*
X98000000Y-62264342D02*
X98000000Y-62169104D01*
X98000000Y-62169104D02*
X97952381Y-62073866D01*
X97952381Y-62073866D02*
X97904762Y-62026247D01*
X97904762Y-62026247D02*
X97809524Y-61978628D01*
X97809524Y-61978628D02*
X97619048Y-61931009D01*
X97619048Y-61931009D02*
X97523810Y-61883390D01*
X97523810Y-61883390D02*
X97476191Y-61835771D01*
X97476191Y-61835771D02*
X97428572Y-61740533D01*
X97428572Y-61740533D02*
X97428572Y-61645295D01*
X97428572Y-61645295D02*
X97476191Y-61550057D01*
X97476191Y-61550057D02*
X97523810Y-61502438D01*
X97523810Y-61502438D02*
X97619048Y-61454819D01*
X97619048Y-61454819D02*
X97857143Y-61454819D01*
X97857143Y-61454819D02*
X98000000Y-61502438D01*
X98285715Y-61788152D02*
X98666667Y-61788152D01*
X98428572Y-61454819D02*
X98428572Y-62311961D01*
X98428572Y-62311961D02*
X98476191Y-62407200D01*
X98476191Y-62407200D02*
X98571429Y-62454819D01*
X98571429Y-62454819D02*
X98666667Y-62454819D01*
X99428572Y-61788152D02*
X99428572Y-62454819D01*
X99000001Y-61788152D02*
X99000001Y-62311961D01*
X99000001Y-62311961D02*
X99047620Y-62407200D01*
X99047620Y-62407200D02*
X99142858Y-62454819D01*
X99142858Y-62454819D02*
X99285715Y-62454819D01*
X99285715Y-62454819D02*
X99380953Y-62407200D01*
X99380953Y-62407200D02*
X99428572Y-62359580D01*
X100333334Y-62454819D02*
X100333334Y-61454819D01*
X100333334Y-62407200D02*
X100238096Y-62454819D01*
X100238096Y-62454819D02*
X100047620Y-62454819D01*
X100047620Y-62454819D02*
X99952382Y-62407200D01*
X99952382Y-62407200D02*
X99904763Y-62359580D01*
X99904763Y-62359580D02*
X99857144Y-62264342D01*
X99857144Y-62264342D02*
X99857144Y-61978628D01*
X99857144Y-61978628D02*
X99904763Y-61883390D01*
X99904763Y-61883390D02*
X99952382Y-61835771D01*
X99952382Y-61835771D02*
X100047620Y-61788152D01*
X100047620Y-61788152D02*
X100238096Y-61788152D01*
X100238096Y-61788152D02*
X100333334Y-61835771D01*
X100809525Y-62454819D02*
X100809525Y-61788152D01*
X100809525Y-61454819D02*
X100761906Y-61502438D01*
X100761906Y-61502438D02*
X100809525Y-61550057D01*
X100809525Y-61550057D02*
X100857144Y-61502438D01*
X100857144Y-61502438D02*
X100809525Y-61454819D01*
X100809525Y-61454819D02*
X100809525Y-61550057D01*
X101428572Y-62454819D02*
X101333334Y-62407200D01*
X101333334Y-62407200D02*
X101285715Y-62359580D01*
X101285715Y-62359580D02*
X101238096Y-62264342D01*
X101238096Y-62264342D02*
X101238096Y-61978628D01*
X101238096Y-61978628D02*
X101285715Y-61883390D01*
X101285715Y-61883390D02*
X101333334Y-61835771D01*
X101333334Y-61835771D02*
X101428572Y-61788152D01*
X101428572Y-61788152D02*
X101571429Y-61788152D01*
X101571429Y-61788152D02*
X101666667Y-61835771D01*
X101666667Y-61835771D02*
X101714286Y-61883390D01*
X101714286Y-61883390D02*
X101761905Y-61978628D01*
X101761905Y-61978628D02*
X101761905Y-62264342D01*
X101761905Y-62264342D02*
X101714286Y-62359580D01*
X101714286Y-62359580D02*
X101666667Y-62407200D01*
X101666667Y-62407200D02*
X101571429Y-62454819D01*
X101571429Y-62454819D02*
X101428572Y-62454819D01*
X95476191Y-63454819D02*
X96142857Y-64454819D01*
X96142857Y-63454819D02*
X95476191Y-64454819D01*
X96523810Y-64454819D02*
X96523810Y-63454819D01*
X96952381Y-64169104D02*
X97428571Y-64169104D01*
X96857143Y-64454819D02*
X97190476Y-63454819D01*
X97190476Y-63454819D02*
X97523809Y-64454819D01*
X98047619Y-63454819D02*
X98238095Y-63454819D01*
X98238095Y-63454819D02*
X98333333Y-63502438D01*
X98333333Y-63502438D02*
X98428571Y-63597676D01*
X98428571Y-63597676D02*
X98476190Y-63788152D01*
X98476190Y-63788152D02*
X98476190Y-64121485D01*
X98476190Y-64121485D02*
X98428571Y-64311961D01*
X98428571Y-64311961D02*
X98333333Y-64407200D01*
X98333333Y-64407200D02*
X98238095Y-64454819D01*
X98238095Y-64454819D02*
X98047619Y-64454819D01*
X98047619Y-64454819D02*
X97952381Y-64407200D01*
X97952381Y-64407200D02*
X97857143Y-64311961D01*
X97857143Y-64311961D02*
X97809524Y-64121485D01*
X97809524Y-64121485D02*
X97809524Y-63788152D01*
X97809524Y-63788152D02*
X97857143Y-63597676D01*
X97857143Y-63597676D02*
X97952381Y-63502438D01*
X97952381Y-63502438D02*
X98047619Y-63454819D01*
X136441667Y-93658200D02*
X136584524Y-93705819D01*
X136584524Y-93705819D02*
X136822619Y-93705819D01*
X136822619Y-93705819D02*
X136917857Y-93658200D01*
X136917857Y-93658200D02*
X136965476Y-93610580D01*
X136965476Y-93610580D02*
X137013095Y-93515342D01*
X137013095Y-93515342D02*
X137013095Y-93420104D01*
X137013095Y-93420104D02*
X136965476Y-93324866D01*
X136965476Y-93324866D02*
X136917857Y-93277247D01*
X136917857Y-93277247D02*
X136822619Y-93229628D01*
X136822619Y-93229628D02*
X136632143Y-93182009D01*
X136632143Y-93182009D02*
X136536905Y-93134390D01*
X136536905Y-93134390D02*
X136489286Y-93086771D01*
X136489286Y-93086771D02*
X136441667Y-92991533D01*
X136441667Y-92991533D02*
X136441667Y-92896295D01*
X136441667Y-92896295D02*
X136489286Y-92801057D01*
X136489286Y-92801057D02*
X136536905Y-92753438D01*
X136536905Y-92753438D02*
X136632143Y-92705819D01*
X136632143Y-92705819D02*
X136870238Y-92705819D01*
X136870238Y-92705819D02*
X137013095Y-92753438D01*
X137346429Y-92705819D02*
X137584524Y-93705819D01*
X137584524Y-93705819D02*
X137775000Y-92991533D01*
X137775000Y-92991533D02*
X137965476Y-93705819D01*
X137965476Y-93705819D02*
X138203572Y-92705819D01*
X138632143Y-93705819D02*
X138822619Y-93705819D01*
X138822619Y-93705819D02*
X138917857Y-93658200D01*
X138917857Y-93658200D02*
X138965476Y-93610580D01*
X138965476Y-93610580D02*
X139060714Y-93467723D01*
X139060714Y-93467723D02*
X139108333Y-93277247D01*
X139108333Y-93277247D02*
X139108333Y-92896295D01*
X139108333Y-92896295D02*
X139060714Y-92801057D01*
X139060714Y-92801057D02*
X139013095Y-92753438D01*
X139013095Y-92753438D02*
X138917857Y-92705819D01*
X138917857Y-92705819D02*
X138727381Y-92705819D01*
X138727381Y-92705819D02*
X138632143Y-92753438D01*
X138632143Y-92753438D02*
X138584524Y-92801057D01*
X138584524Y-92801057D02*
X138536905Y-92896295D01*
X138536905Y-92896295D02*
X138536905Y-93134390D01*
X138536905Y-93134390D02*
X138584524Y-93229628D01*
X138584524Y-93229628D02*
X138632143Y-93277247D01*
X138632143Y-93277247D02*
X138727381Y-93324866D01*
X138727381Y-93324866D02*
X138917857Y-93324866D01*
X138917857Y-93324866D02*
X139013095Y-93277247D01*
X139013095Y-93277247D02*
X139060714Y-93229628D01*
X139060714Y-93229628D02*
X139108333Y-93134390D01*
X102261905Y-89634819D02*
X102261905Y-88634819D01*
X102261905Y-88634819D02*
X102500000Y-88634819D01*
X102500000Y-88634819D02*
X102642857Y-88682438D01*
X102642857Y-88682438D02*
X102738095Y-88777676D01*
X102738095Y-88777676D02*
X102785714Y-88872914D01*
X102785714Y-88872914D02*
X102833333Y-89063390D01*
X102833333Y-89063390D02*
X102833333Y-89206247D01*
X102833333Y-89206247D02*
X102785714Y-89396723D01*
X102785714Y-89396723D02*
X102738095Y-89491961D01*
X102738095Y-89491961D02*
X102642857Y-89587200D01*
X102642857Y-89587200D02*
X102500000Y-89634819D01*
X102500000Y-89634819D02*
X102261905Y-89634819D01*
X103166667Y-88634819D02*
X103785714Y-88634819D01*
X103785714Y-88634819D02*
X103452381Y-89015771D01*
X103452381Y-89015771D02*
X103595238Y-89015771D01*
X103595238Y-89015771D02*
X103690476Y-89063390D01*
X103690476Y-89063390D02*
X103738095Y-89111009D01*
X103738095Y-89111009D02*
X103785714Y-89206247D01*
X103785714Y-89206247D02*
X103785714Y-89444342D01*
X103785714Y-89444342D02*
X103738095Y-89539580D01*
X103738095Y-89539580D02*
X103690476Y-89587200D01*
X103690476Y-89587200D02*
X103595238Y-89634819D01*
X103595238Y-89634819D02*
X103309524Y-89634819D01*
X103309524Y-89634819D02*
X103214286Y-89587200D01*
X103214286Y-89587200D02*
X103166667Y-89539580D01*
X98928095Y-89954819D02*
X98928095Y-88954819D01*
X99499523Y-89954819D02*
X99070952Y-89383390D01*
X99499523Y-88954819D02*
X98928095Y-89526247D01*
X102261905Y-93184819D02*
X102261905Y-92184819D01*
X102261905Y-92184819D02*
X102500000Y-92184819D01*
X102500000Y-92184819D02*
X102642857Y-92232438D01*
X102642857Y-92232438D02*
X102738095Y-92327676D01*
X102738095Y-92327676D02*
X102785714Y-92422914D01*
X102785714Y-92422914D02*
X102833333Y-92613390D01*
X102833333Y-92613390D02*
X102833333Y-92756247D01*
X102833333Y-92756247D02*
X102785714Y-92946723D01*
X102785714Y-92946723D02*
X102738095Y-93041961D01*
X102738095Y-93041961D02*
X102642857Y-93137200D01*
X102642857Y-93137200D02*
X102500000Y-93184819D01*
X102500000Y-93184819D02*
X102261905Y-93184819D01*
X103738095Y-92184819D02*
X103261905Y-92184819D01*
X103261905Y-92184819D02*
X103214286Y-92661009D01*
X103214286Y-92661009D02*
X103261905Y-92613390D01*
X103261905Y-92613390D02*
X103357143Y-92565771D01*
X103357143Y-92565771D02*
X103595238Y-92565771D01*
X103595238Y-92565771D02*
X103690476Y-92613390D01*
X103690476Y-92613390D02*
X103738095Y-92661009D01*
X103738095Y-92661009D02*
X103785714Y-92756247D01*
X103785714Y-92756247D02*
X103785714Y-92994342D01*
X103785714Y-92994342D02*
X103738095Y-93089580D01*
X103738095Y-93089580D02*
X103690476Y-93137200D01*
X103690476Y-93137200D02*
X103595238Y-93184819D01*
X103595238Y-93184819D02*
X103357143Y-93184819D01*
X103357143Y-93184819D02*
X103261905Y-93137200D01*
X103261905Y-93137200D02*
X103214286Y-93089580D01*
X98928095Y-93504819D02*
X98928095Y-92504819D01*
X99499523Y-93504819D02*
X99070952Y-92933390D01*
X99499523Y-92504819D02*
X98928095Y-93076247D01*
X102261905Y-100284819D02*
X102261905Y-99284819D01*
X102261905Y-99284819D02*
X102500000Y-99284819D01*
X102500000Y-99284819D02*
X102642857Y-99332438D01*
X102642857Y-99332438D02*
X102738095Y-99427676D01*
X102738095Y-99427676D02*
X102785714Y-99522914D01*
X102785714Y-99522914D02*
X102833333Y-99713390D01*
X102833333Y-99713390D02*
X102833333Y-99856247D01*
X102833333Y-99856247D02*
X102785714Y-100046723D01*
X102785714Y-100046723D02*
X102738095Y-100141961D01*
X102738095Y-100141961D02*
X102642857Y-100237200D01*
X102642857Y-100237200D02*
X102500000Y-100284819D01*
X102500000Y-100284819D02*
X102261905Y-100284819D01*
X103166667Y-99284819D02*
X103833333Y-99284819D01*
X103833333Y-99284819D02*
X103404762Y-100284819D01*
X98928095Y-100604819D02*
X98928095Y-99604819D01*
X99499523Y-100604819D02*
X99070952Y-100033390D01*
X99499523Y-99604819D02*
X98928095Y-100176247D01*
X101785714Y-103834819D02*
X101785714Y-102834819D01*
X101785714Y-102834819D02*
X102023809Y-102834819D01*
X102023809Y-102834819D02*
X102166666Y-102882438D01*
X102166666Y-102882438D02*
X102261904Y-102977676D01*
X102261904Y-102977676D02*
X102309523Y-103072914D01*
X102309523Y-103072914D02*
X102357142Y-103263390D01*
X102357142Y-103263390D02*
X102357142Y-103406247D01*
X102357142Y-103406247D02*
X102309523Y-103596723D01*
X102309523Y-103596723D02*
X102261904Y-103691961D01*
X102261904Y-103691961D02*
X102166666Y-103787200D01*
X102166666Y-103787200D02*
X102023809Y-103834819D01*
X102023809Y-103834819D02*
X101785714Y-103834819D01*
X102738095Y-102930057D02*
X102785714Y-102882438D01*
X102785714Y-102882438D02*
X102880952Y-102834819D01*
X102880952Y-102834819D02*
X103119047Y-102834819D01*
X103119047Y-102834819D02*
X103214285Y-102882438D01*
X103214285Y-102882438D02*
X103261904Y-102930057D01*
X103261904Y-102930057D02*
X103309523Y-103025295D01*
X103309523Y-103025295D02*
X103309523Y-103120533D01*
X103309523Y-103120533D02*
X103261904Y-103263390D01*
X103261904Y-103263390D02*
X102690476Y-103834819D01*
X102690476Y-103834819D02*
X103309523Y-103834819D01*
X103690476Y-102930057D02*
X103738095Y-102882438D01*
X103738095Y-102882438D02*
X103833333Y-102834819D01*
X103833333Y-102834819D02*
X104071428Y-102834819D01*
X104071428Y-102834819D02*
X104166666Y-102882438D01*
X104166666Y-102882438D02*
X104214285Y-102930057D01*
X104214285Y-102930057D02*
X104261904Y-103025295D01*
X104261904Y-103025295D02*
X104261904Y-103120533D01*
X104261904Y-103120533D02*
X104214285Y-103263390D01*
X104214285Y-103263390D02*
X103642857Y-103834819D01*
X103642857Y-103834819D02*
X104261904Y-103834819D01*
X98928095Y-104154819D02*
X98928095Y-103154819D01*
X99499523Y-104154819D02*
X99070952Y-103583390D01*
X99499523Y-103154819D02*
X98928095Y-103726247D01*
X101785714Y-107384819D02*
X101785714Y-106384819D01*
X101785714Y-106384819D02*
X102023809Y-106384819D01*
X102023809Y-106384819D02*
X102166666Y-106432438D01*
X102166666Y-106432438D02*
X102261904Y-106527676D01*
X102261904Y-106527676D02*
X102309523Y-106622914D01*
X102309523Y-106622914D02*
X102357142Y-106813390D01*
X102357142Y-106813390D02*
X102357142Y-106956247D01*
X102357142Y-106956247D02*
X102309523Y-107146723D01*
X102309523Y-107146723D02*
X102261904Y-107241961D01*
X102261904Y-107241961D02*
X102166666Y-107337200D01*
X102166666Y-107337200D02*
X102023809Y-107384819D01*
X102023809Y-107384819D02*
X101785714Y-107384819D01*
X102833333Y-107384819D02*
X103023809Y-107384819D01*
X103023809Y-107384819D02*
X103119047Y-107337200D01*
X103119047Y-107337200D02*
X103166666Y-107289580D01*
X103166666Y-107289580D02*
X103261904Y-107146723D01*
X103261904Y-107146723D02*
X103309523Y-106956247D01*
X103309523Y-106956247D02*
X103309523Y-106575295D01*
X103309523Y-106575295D02*
X103261904Y-106480057D01*
X103261904Y-106480057D02*
X103214285Y-106432438D01*
X103214285Y-106432438D02*
X103119047Y-106384819D01*
X103119047Y-106384819D02*
X102928571Y-106384819D01*
X102928571Y-106384819D02*
X102833333Y-106432438D01*
X102833333Y-106432438D02*
X102785714Y-106480057D01*
X102785714Y-106480057D02*
X102738095Y-106575295D01*
X102738095Y-106575295D02*
X102738095Y-106813390D01*
X102738095Y-106813390D02*
X102785714Y-106908628D01*
X102785714Y-106908628D02*
X102833333Y-106956247D01*
X102833333Y-106956247D02*
X102928571Y-107003866D01*
X102928571Y-107003866D02*
X103119047Y-107003866D01*
X103119047Y-107003866D02*
X103214285Y-106956247D01*
X103214285Y-106956247D02*
X103261904Y-106908628D01*
X103261904Y-106908628D02*
X103309523Y-106813390D01*
X103785714Y-107384819D02*
X103976190Y-107384819D01*
X103976190Y-107384819D02*
X104071428Y-107337200D01*
X104071428Y-107337200D02*
X104119047Y-107289580D01*
X104119047Y-107289580D02*
X104214285Y-107146723D01*
X104214285Y-107146723D02*
X104261904Y-106956247D01*
X104261904Y-106956247D02*
X104261904Y-106575295D01*
X104261904Y-106575295D02*
X104214285Y-106480057D01*
X104214285Y-106480057D02*
X104166666Y-106432438D01*
X104166666Y-106432438D02*
X104071428Y-106384819D01*
X104071428Y-106384819D02*
X103880952Y-106384819D01*
X103880952Y-106384819D02*
X103785714Y-106432438D01*
X103785714Y-106432438D02*
X103738095Y-106480057D01*
X103738095Y-106480057D02*
X103690476Y-106575295D01*
X103690476Y-106575295D02*
X103690476Y-106813390D01*
X103690476Y-106813390D02*
X103738095Y-106908628D01*
X103738095Y-106908628D02*
X103785714Y-106956247D01*
X103785714Y-106956247D02*
X103880952Y-107003866D01*
X103880952Y-107003866D02*
X104071428Y-107003866D01*
X104071428Y-107003866D02*
X104166666Y-106956247D01*
X104166666Y-106956247D02*
X104214285Y-106908628D01*
X104214285Y-106908628D02*
X104261904Y-106813390D01*
X98928095Y-107704819D02*
X98928095Y-106704819D01*
X99499523Y-107704819D02*
X99070952Y-107133390D01*
X99499523Y-106704819D02*
X98928095Y-107276247D01*
X144391666Y-58979819D02*
X144058333Y-58503628D01*
X143820238Y-58979819D02*
X143820238Y-57979819D01*
X143820238Y-57979819D02*
X144201190Y-57979819D01*
X144201190Y-57979819D02*
X144296428Y-58027438D01*
X144296428Y-58027438D02*
X144344047Y-58075057D01*
X144344047Y-58075057D02*
X144391666Y-58170295D01*
X144391666Y-58170295D02*
X144391666Y-58313152D01*
X144391666Y-58313152D02*
X144344047Y-58408390D01*
X144344047Y-58408390D02*
X144296428Y-58456009D01*
X144296428Y-58456009D02*
X144201190Y-58503628D01*
X144201190Y-58503628D02*
X143820238Y-58503628D01*
X144820238Y-58456009D02*
X145153571Y-58456009D01*
X145296428Y-58979819D02*
X144820238Y-58979819D01*
X144820238Y-58979819D02*
X144820238Y-57979819D01*
X144820238Y-57979819D02*
X145296428Y-57979819D01*
X146058333Y-58456009D02*
X145725000Y-58456009D01*
X145725000Y-58979819D02*
X145725000Y-57979819D01*
X145725000Y-57979819D02*
X146201190Y-57979819D01*
X146725000Y-57979819D02*
X146725000Y-58217914D01*
X146486905Y-58122676D02*
X146725000Y-58217914D01*
X146725000Y-58217914D02*
X146963095Y-58122676D01*
X146582143Y-58408390D02*
X146725000Y-58217914D01*
X146725000Y-58217914D02*
X146867857Y-58408390D01*
X147486905Y-57979819D02*
X147486905Y-58217914D01*
X147248810Y-58122676D02*
X147486905Y-58217914D01*
X147486905Y-58217914D02*
X147725000Y-58122676D01*
X147344048Y-58408390D02*
X147486905Y-58217914D01*
X147486905Y-58217914D02*
X147629762Y-58408390D01*
X102261905Y-96734819D02*
X102261905Y-95734819D01*
X102261905Y-95734819D02*
X102500000Y-95734819D01*
X102500000Y-95734819D02*
X102642857Y-95782438D01*
X102642857Y-95782438D02*
X102738095Y-95877676D01*
X102738095Y-95877676D02*
X102785714Y-95972914D01*
X102785714Y-95972914D02*
X102833333Y-96163390D01*
X102833333Y-96163390D02*
X102833333Y-96306247D01*
X102833333Y-96306247D02*
X102785714Y-96496723D01*
X102785714Y-96496723D02*
X102738095Y-96591961D01*
X102738095Y-96591961D02*
X102642857Y-96687200D01*
X102642857Y-96687200D02*
X102500000Y-96734819D01*
X102500000Y-96734819D02*
X102261905Y-96734819D01*
X103690476Y-95734819D02*
X103500000Y-95734819D01*
X103500000Y-95734819D02*
X103404762Y-95782438D01*
X103404762Y-95782438D02*
X103357143Y-95830057D01*
X103357143Y-95830057D02*
X103261905Y-95972914D01*
X103261905Y-95972914D02*
X103214286Y-96163390D01*
X103214286Y-96163390D02*
X103214286Y-96544342D01*
X103214286Y-96544342D02*
X103261905Y-96639580D01*
X103261905Y-96639580D02*
X103309524Y-96687200D01*
X103309524Y-96687200D02*
X103404762Y-96734819D01*
X103404762Y-96734819D02*
X103595238Y-96734819D01*
X103595238Y-96734819D02*
X103690476Y-96687200D01*
X103690476Y-96687200D02*
X103738095Y-96639580D01*
X103738095Y-96639580D02*
X103785714Y-96544342D01*
X103785714Y-96544342D02*
X103785714Y-96306247D01*
X103785714Y-96306247D02*
X103738095Y-96211009D01*
X103738095Y-96211009D02*
X103690476Y-96163390D01*
X103690476Y-96163390D02*
X103595238Y-96115771D01*
X103595238Y-96115771D02*
X103404762Y-96115771D01*
X103404762Y-96115771D02*
X103309524Y-96163390D01*
X103309524Y-96163390D02*
X103261905Y-96211009D01*
X103261905Y-96211009D02*
X103214286Y-96306247D01*
X98928095Y-97054819D02*
X98928095Y-96054819D01*
X99499523Y-97054819D02*
X99070952Y-96483390D01*
X99499523Y-96054819D02*
X98928095Y-96626247D01*
X136366667Y-74558200D02*
X136509524Y-74605819D01*
X136509524Y-74605819D02*
X136747619Y-74605819D01*
X136747619Y-74605819D02*
X136842857Y-74558200D01*
X136842857Y-74558200D02*
X136890476Y-74510580D01*
X136890476Y-74510580D02*
X136938095Y-74415342D01*
X136938095Y-74415342D02*
X136938095Y-74320104D01*
X136938095Y-74320104D02*
X136890476Y-74224866D01*
X136890476Y-74224866D02*
X136842857Y-74177247D01*
X136842857Y-74177247D02*
X136747619Y-74129628D01*
X136747619Y-74129628D02*
X136557143Y-74082009D01*
X136557143Y-74082009D02*
X136461905Y-74034390D01*
X136461905Y-74034390D02*
X136414286Y-73986771D01*
X136414286Y-73986771D02*
X136366667Y-73891533D01*
X136366667Y-73891533D02*
X136366667Y-73796295D01*
X136366667Y-73796295D02*
X136414286Y-73701057D01*
X136414286Y-73701057D02*
X136461905Y-73653438D01*
X136461905Y-73653438D02*
X136557143Y-73605819D01*
X136557143Y-73605819D02*
X136795238Y-73605819D01*
X136795238Y-73605819D02*
X136938095Y-73653438D01*
X137271429Y-73605819D02*
X137509524Y-74605819D01*
X137509524Y-74605819D02*
X137700000Y-73891533D01*
X137700000Y-73891533D02*
X137890476Y-74605819D01*
X137890476Y-74605819D02*
X138128572Y-73605819D01*
X138414286Y-73605819D02*
X139033333Y-73605819D01*
X139033333Y-73605819D02*
X138700000Y-73986771D01*
X138700000Y-73986771D02*
X138842857Y-73986771D01*
X138842857Y-73986771D02*
X138938095Y-74034390D01*
X138938095Y-74034390D02*
X138985714Y-74082009D01*
X138985714Y-74082009D02*
X139033333Y-74177247D01*
X139033333Y-74177247D02*
X139033333Y-74415342D01*
X139033333Y-74415342D02*
X138985714Y-74510580D01*
X138985714Y-74510580D02*
X138938095Y-74558200D01*
X138938095Y-74558200D02*
X138842857Y-74605819D01*
X138842857Y-74605819D02*
X138557143Y-74605819D01*
X138557143Y-74605819D02*
X138461905Y-74558200D01*
X138461905Y-74558200D02*
X138414286Y-74510580D01*
X155566667Y-74608200D02*
X155709524Y-74655819D01*
X155709524Y-74655819D02*
X155947619Y-74655819D01*
X155947619Y-74655819D02*
X156042857Y-74608200D01*
X156042857Y-74608200D02*
X156090476Y-74560580D01*
X156090476Y-74560580D02*
X156138095Y-74465342D01*
X156138095Y-74465342D02*
X156138095Y-74370104D01*
X156138095Y-74370104D02*
X156090476Y-74274866D01*
X156090476Y-74274866D02*
X156042857Y-74227247D01*
X156042857Y-74227247D02*
X155947619Y-74179628D01*
X155947619Y-74179628D02*
X155757143Y-74132009D01*
X155757143Y-74132009D02*
X155661905Y-74084390D01*
X155661905Y-74084390D02*
X155614286Y-74036771D01*
X155614286Y-74036771D02*
X155566667Y-73941533D01*
X155566667Y-73941533D02*
X155566667Y-73846295D01*
X155566667Y-73846295D02*
X155614286Y-73751057D01*
X155614286Y-73751057D02*
X155661905Y-73703438D01*
X155661905Y-73703438D02*
X155757143Y-73655819D01*
X155757143Y-73655819D02*
X155995238Y-73655819D01*
X155995238Y-73655819D02*
X156138095Y-73703438D01*
X156471429Y-73655819D02*
X156709524Y-74655819D01*
X156709524Y-74655819D02*
X156900000Y-73941533D01*
X156900000Y-73941533D02*
X157090476Y-74655819D01*
X157090476Y-74655819D02*
X157328572Y-73655819D01*
X158185714Y-73655819D02*
X157709524Y-73655819D01*
X157709524Y-73655819D02*
X157661905Y-74132009D01*
X157661905Y-74132009D02*
X157709524Y-74084390D01*
X157709524Y-74084390D02*
X157804762Y-74036771D01*
X157804762Y-74036771D02*
X158042857Y-74036771D01*
X158042857Y-74036771D02*
X158138095Y-74084390D01*
X158138095Y-74084390D02*
X158185714Y-74132009D01*
X158185714Y-74132009D02*
X158233333Y-74227247D01*
X158233333Y-74227247D02*
X158233333Y-74465342D01*
X158233333Y-74465342D02*
X158185714Y-74560580D01*
X158185714Y-74560580D02*
X158138095Y-74608200D01*
X158138095Y-74608200D02*
X158042857Y-74655819D01*
X158042857Y-74655819D02*
X157804762Y-74655819D01*
X157804762Y-74655819D02*
X157709524Y-74608200D01*
X157709524Y-74608200D02*
X157661905Y-74560580D01*
X117266667Y-93658200D02*
X117409524Y-93705819D01*
X117409524Y-93705819D02*
X117647619Y-93705819D01*
X117647619Y-93705819D02*
X117742857Y-93658200D01*
X117742857Y-93658200D02*
X117790476Y-93610580D01*
X117790476Y-93610580D02*
X117838095Y-93515342D01*
X117838095Y-93515342D02*
X117838095Y-93420104D01*
X117838095Y-93420104D02*
X117790476Y-93324866D01*
X117790476Y-93324866D02*
X117742857Y-93277247D01*
X117742857Y-93277247D02*
X117647619Y-93229628D01*
X117647619Y-93229628D02*
X117457143Y-93182009D01*
X117457143Y-93182009D02*
X117361905Y-93134390D01*
X117361905Y-93134390D02*
X117314286Y-93086771D01*
X117314286Y-93086771D02*
X117266667Y-92991533D01*
X117266667Y-92991533D02*
X117266667Y-92896295D01*
X117266667Y-92896295D02*
X117314286Y-92801057D01*
X117314286Y-92801057D02*
X117361905Y-92753438D01*
X117361905Y-92753438D02*
X117457143Y-92705819D01*
X117457143Y-92705819D02*
X117695238Y-92705819D01*
X117695238Y-92705819D02*
X117838095Y-92753438D01*
X118171429Y-92705819D02*
X118409524Y-93705819D01*
X118409524Y-93705819D02*
X118600000Y-92991533D01*
X118600000Y-92991533D02*
X118790476Y-93705819D01*
X118790476Y-93705819D02*
X119028572Y-92705819D01*
X119361905Y-92801057D02*
X119409524Y-92753438D01*
X119409524Y-92753438D02*
X119504762Y-92705819D01*
X119504762Y-92705819D02*
X119742857Y-92705819D01*
X119742857Y-92705819D02*
X119838095Y-92753438D01*
X119838095Y-92753438D02*
X119885714Y-92801057D01*
X119885714Y-92801057D02*
X119933333Y-92896295D01*
X119933333Y-92896295D02*
X119933333Y-92991533D01*
X119933333Y-92991533D02*
X119885714Y-93134390D01*
X119885714Y-93134390D02*
X119314286Y-93705819D01*
X119314286Y-93705819D02*
X119933333Y-93705819D01*
X102261905Y-86084819D02*
X102261905Y-85084819D01*
X102261905Y-85084819D02*
X102500000Y-85084819D01*
X102500000Y-85084819D02*
X102642857Y-85132438D01*
X102642857Y-85132438D02*
X102738095Y-85227676D01*
X102738095Y-85227676D02*
X102785714Y-85322914D01*
X102785714Y-85322914D02*
X102833333Y-85513390D01*
X102833333Y-85513390D02*
X102833333Y-85656247D01*
X102833333Y-85656247D02*
X102785714Y-85846723D01*
X102785714Y-85846723D02*
X102738095Y-85941961D01*
X102738095Y-85941961D02*
X102642857Y-86037200D01*
X102642857Y-86037200D02*
X102500000Y-86084819D01*
X102500000Y-86084819D02*
X102261905Y-86084819D01*
X103785714Y-86084819D02*
X103214286Y-86084819D01*
X103500000Y-86084819D02*
X103500000Y-85084819D01*
X103500000Y-85084819D02*
X103404762Y-85227676D01*
X103404762Y-85227676D02*
X103309524Y-85322914D01*
X103309524Y-85322914D02*
X103214286Y-85370533D01*
X98928095Y-86404819D02*
X98928095Y-85404819D01*
X99499523Y-86404819D02*
X99070952Y-85833390D01*
X99499523Y-85404819D02*
X98928095Y-85976247D01*
X151716667Y-57207200D02*
X151859524Y-57254819D01*
X151859524Y-57254819D02*
X152097619Y-57254819D01*
X152097619Y-57254819D02*
X152192857Y-57207200D01*
X152192857Y-57207200D02*
X152240476Y-57159580D01*
X152240476Y-57159580D02*
X152288095Y-57064342D01*
X152288095Y-57064342D02*
X152288095Y-56969104D01*
X152288095Y-56969104D02*
X152240476Y-56873866D01*
X152240476Y-56873866D02*
X152192857Y-56826247D01*
X152192857Y-56826247D02*
X152097619Y-56778628D01*
X152097619Y-56778628D02*
X151907143Y-56731009D01*
X151907143Y-56731009D02*
X151811905Y-56683390D01*
X151811905Y-56683390D02*
X151764286Y-56635771D01*
X151764286Y-56635771D02*
X151716667Y-56540533D01*
X151716667Y-56540533D02*
X151716667Y-56445295D01*
X151716667Y-56445295D02*
X151764286Y-56350057D01*
X151764286Y-56350057D02*
X151811905Y-56302438D01*
X151811905Y-56302438D02*
X151907143Y-56254819D01*
X151907143Y-56254819D02*
X152145238Y-56254819D01*
X152145238Y-56254819D02*
X152288095Y-56302438D01*
X152621429Y-56254819D02*
X152859524Y-57254819D01*
X152859524Y-57254819D02*
X153050000Y-56540533D01*
X153050000Y-56540533D02*
X153240476Y-57254819D01*
X153240476Y-57254819D02*
X153478572Y-56254819D01*
X154288095Y-56588152D02*
X154288095Y-57254819D01*
X154050000Y-56207200D02*
X153811905Y-56921485D01*
X153811905Y-56921485D02*
X154430952Y-56921485D01*
X117246667Y-74533200D02*
X117389524Y-74580819D01*
X117389524Y-74580819D02*
X117627619Y-74580819D01*
X117627619Y-74580819D02*
X117722857Y-74533200D01*
X117722857Y-74533200D02*
X117770476Y-74485580D01*
X117770476Y-74485580D02*
X117818095Y-74390342D01*
X117818095Y-74390342D02*
X117818095Y-74295104D01*
X117818095Y-74295104D02*
X117770476Y-74199866D01*
X117770476Y-74199866D02*
X117722857Y-74152247D01*
X117722857Y-74152247D02*
X117627619Y-74104628D01*
X117627619Y-74104628D02*
X117437143Y-74057009D01*
X117437143Y-74057009D02*
X117341905Y-74009390D01*
X117341905Y-74009390D02*
X117294286Y-73961771D01*
X117294286Y-73961771D02*
X117246667Y-73866533D01*
X117246667Y-73866533D02*
X117246667Y-73771295D01*
X117246667Y-73771295D02*
X117294286Y-73676057D01*
X117294286Y-73676057D02*
X117341905Y-73628438D01*
X117341905Y-73628438D02*
X117437143Y-73580819D01*
X117437143Y-73580819D02*
X117675238Y-73580819D01*
X117675238Y-73580819D02*
X117818095Y-73628438D01*
X118151429Y-73580819D02*
X118389524Y-74580819D01*
X118389524Y-74580819D02*
X118580000Y-73866533D01*
X118580000Y-73866533D02*
X118770476Y-74580819D01*
X118770476Y-74580819D02*
X119008572Y-73580819D01*
X119913333Y-74580819D02*
X119341905Y-74580819D01*
X119627619Y-74580819D02*
X119627619Y-73580819D01*
X119627619Y-73580819D02*
X119532381Y-73723676D01*
X119532381Y-73723676D02*
X119437143Y-73818914D01*
X119437143Y-73818914D02*
X119341905Y-73866533D01*
X155616667Y-93683200D02*
X155759524Y-93730819D01*
X155759524Y-93730819D02*
X155997619Y-93730819D01*
X155997619Y-93730819D02*
X156092857Y-93683200D01*
X156092857Y-93683200D02*
X156140476Y-93635580D01*
X156140476Y-93635580D02*
X156188095Y-93540342D01*
X156188095Y-93540342D02*
X156188095Y-93445104D01*
X156188095Y-93445104D02*
X156140476Y-93349866D01*
X156140476Y-93349866D02*
X156092857Y-93302247D01*
X156092857Y-93302247D02*
X155997619Y-93254628D01*
X155997619Y-93254628D02*
X155807143Y-93207009D01*
X155807143Y-93207009D02*
X155711905Y-93159390D01*
X155711905Y-93159390D02*
X155664286Y-93111771D01*
X155664286Y-93111771D02*
X155616667Y-93016533D01*
X155616667Y-93016533D02*
X155616667Y-92921295D01*
X155616667Y-92921295D02*
X155664286Y-92826057D01*
X155664286Y-92826057D02*
X155711905Y-92778438D01*
X155711905Y-92778438D02*
X155807143Y-92730819D01*
X155807143Y-92730819D02*
X156045238Y-92730819D01*
X156045238Y-92730819D02*
X156188095Y-92778438D01*
X156521429Y-92730819D02*
X156759524Y-93730819D01*
X156759524Y-93730819D02*
X156950000Y-93016533D01*
X156950000Y-93016533D02*
X157140476Y-93730819D01*
X157140476Y-93730819D02*
X157378572Y-92730819D01*
X158188095Y-92730819D02*
X157997619Y-92730819D01*
X157997619Y-92730819D02*
X157902381Y-92778438D01*
X157902381Y-92778438D02*
X157854762Y-92826057D01*
X157854762Y-92826057D02*
X157759524Y-92968914D01*
X157759524Y-92968914D02*
X157711905Y-93159390D01*
X157711905Y-93159390D02*
X157711905Y-93540342D01*
X157711905Y-93540342D02*
X157759524Y-93635580D01*
X157759524Y-93635580D02*
X157807143Y-93683200D01*
X157807143Y-93683200D02*
X157902381Y-93730819D01*
X157902381Y-93730819D02*
X158092857Y-93730819D01*
X158092857Y-93730819D02*
X158188095Y-93683200D01*
X158188095Y-93683200D02*
X158235714Y-93635580D01*
X158235714Y-93635580D02*
X158283333Y-93540342D01*
X158283333Y-93540342D02*
X158283333Y-93302247D01*
X158283333Y-93302247D02*
X158235714Y-93207009D01*
X158235714Y-93207009D02*
X158188095Y-93159390D01*
X158188095Y-93159390D02*
X158092857Y-93111771D01*
X158092857Y-93111771D02*
X157902381Y-93111771D01*
X157902381Y-93111771D02*
X157807143Y-93159390D01*
X157807143Y-93159390D02*
X157759524Y-93207009D01*
X157759524Y-93207009D02*
X157711905Y-93302247D01*
%TO.C,J2*%
D12*
X109345000Y-56035000D02*
X110725000Y-56035000D01*
X109345000Y-57415000D02*
X109345000Y-56035000D01*
X109345000Y-58685000D02*
X109345000Y-66415000D01*
X109345000Y-58685000D02*
X112105000Y-58685000D01*
X109345000Y-66415000D02*
X112105000Y-66415000D01*
X112105000Y-58685000D02*
X112105000Y-66415000D01*
%TO.C,U1*%
D13*
X88100000Y-55000000D02*
X88100000Y-72000000D01*
X90100000Y-74000000D02*
X103900000Y-74000000D01*
X92500000Y-51575970D02*
X101500000Y-51575970D01*
X92500000Y-58929270D02*
X92500000Y-51575970D01*
X101500000Y-51575970D02*
X101500000Y-58929270D01*
X101500000Y-58929270D02*
X92500000Y-58929270D01*
X103900000Y-53000910D02*
X90100000Y-53000910D01*
X105900000Y-72000000D02*
X105900000Y-55000000D01*
D12*
X88100000Y-55000000D02*
G75*
G02*
X90100000Y-53000000I2044612J-44612D01*
G01*
X90100000Y-74000000D02*
G75*
G02*
X88100000Y-72000000I44857J2044857D01*
G01*
X103900000Y-53000000D02*
G75*
G02*
X105900000Y-55000000I-44610J-2044610D01*
G01*
X105900000Y-72000000D02*
G75*
G02*
X103900000Y-74000000I-2000000J0D01*
G01*
D14*
X86127000Y-54700000D02*
G75*
G02*
X85873000Y-54700000I-127000J0D01*
G01*
X85873000Y-54700000D02*
G75*
G02*
X86127000Y-54700000I127000J0D01*
G01*
D15*
X88112285Y-54938295D02*
X88115333Y-54889527D01*
X88119397Y-54840506D01*
X88112285Y-54938295D01*
X105889492Y-72021574D02*
X105887713Y-72070850D01*
X105884665Y-72119618D01*
X105880601Y-72168639D01*
X105875268Y-72217407D01*
X105868664Y-72266175D01*
X105861044Y-72314690D01*
X105852153Y-72362950D01*
X105842248Y-72410955D01*
X105889492Y-72021574D01*
%TO.C,SW9*%
D12*
X130790000Y-94140000D02*
X144760000Y-94140000D01*
X130790000Y-108110000D02*
X130790000Y-94140000D01*
X144760000Y-94140000D02*
X144760000Y-108110000D01*
X144760000Y-108110000D02*
X130790000Y-108110000D01*
%TO.C,D3*%
X100230000Y-91300000D02*
X100880000Y-91300000D01*
X101480000Y-90180000D02*
X101480000Y-92420000D01*
X101600000Y-90180000D02*
X101600000Y-92420000D01*
X101720000Y-90180000D02*
X101720000Y-92420000D01*
X105770000Y-91300000D02*
X105120000Y-91300000D01*
X100880000Y-90180000D02*
X105120000Y-90180000D01*
X105120000Y-92420000D01*
X100880000Y-92420000D01*
X100880000Y-90180000D01*
%TO.C,D5*%
X100230000Y-94850000D02*
X100880000Y-94850000D01*
X101480000Y-93730000D02*
X101480000Y-95970000D01*
X101600000Y-93730000D02*
X101600000Y-95970000D01*
X101720000Y-93730000D02*
X101720000Y-95970000D01*
X105770000Y-94850000D02*
X105120000Y-94850000D01*
X100880000Y-93730000D02*
X105120000Y-93730000D01*
X105120000Y-95970000D01*
X100880000Y-95970000D01*
X100880000Y-93730000D01*
%TO.C,D7*%
X100230000Y-101950000D02*
X100880000Y-101950000D01*
X101480000Y-100830000D02*
X101480000Y-103070000D01*
X101600000Y-100830000D02*
X101600000Y-103070000D01*
X101720000Y-100830000D02*
X101720000Y-103070000D01*
X105770000Y-101950000D02*
X105120000Y-101950000D01*
X100880000Y-100830000D02*
X105120000Y-100830000D01*
X105120000Y-103070000D01*
X100880000Y-103070000D01*
X100880000Y-100830000D01*
%TO.C,D22*%
X100230000Y-105500000D02*
X100880000Y-105500000D01*
X101480000Y-104380000D02*
X101480000Y-106620000D01*
X101600000Y-104380000D02*
X101600000Y-106620000D01*
X101720000Y-104380000D02*
X101720000Y-106620000D01*
X105770000Y-105500000D02*
X105120000Y-105500000D01*
X100880000Y-104380000D02*
X105120000Y-104380000D01*
X105120000Y-106620000D01*
X100880000Y-106620000D01*
X100880000Y-104380000D01*
%TO.C,D99*%
X100230000Y-109050000D02*
X100880000Y-109050000D01*
X101480000Y-107930000D02*
X101480000Y-110170000D01*
X101600000Y-107930000D02*
X101600000Y-110170000D01*
X101720000Y-107930000D02*
X101720000Y-110170000D01*
X105770000Y-109050000D02*
X105120000Y-109050000D01*
X100880000Y-107930000D02*
X105120000Y-107930000D01*
X105120000Y-110170000D01*
X100880000Y-110170000D01*
X100880000Y-107930000D01*
%TO.C,D6*%
X100230000Y-98400000D02*
X100880000Y-98400000D01*
X101480000Y-97280000D02*
X101480000Y-99520000D01*
X101600000Y-97280000D02*
X101600000Y-99520000D01*
X101720000Y-97280000D02*
X101720000Y-99520000D01*
X105770000Y-98400000D02*
X105120000Y-98400000D01*
X100880000Y-97280000D02*
X105120000Y-97280000D01*
X105120000Y-99520000D01*
X100880000Y-99520000D01*
X100880000Y-97280000D01*
%TO.C,SW3*%
X130715000Y-75040000D02*
X144685000Y-75040000D01*
X130715000Y-89010000D02*
X130715000Y-75040000D01*
X144685000Y-75040000D02*
X144685000Y-89010000D01*
X144685000Y-89010000D02*
X130715000Y-89010000D01*
%TO.C,SW5*%
X149915000Y-75090000D02*
X163885000Y-75090000D01*
X149915000Y-89060000D02*
X149915000Y-75090000D01*
X163885000Y-75090000D02*
X163885000Y-89060000D01*
X163885000Y-89060000D02*
X149915000Y-89060000D01*
%TO.C,SW2*%
X111615000Y-94140000D02*
X125585000Y-94140000D01*
X111615000Y-108110000D02*
X111615000Y-94140000D01*
X125585000Y-94140000D02*
X125585000Y-108110000D01*
X125585000Y-108110000D02*
X111615000Y-108110000D01*
%TO.C,D1*%
X100230000Y-87750000D02*
X100880000Y-87750000D01*
X101480000Y-86630000D02*
X101480000Y-88870000D01*
X101600000Y-86630000D02*
X101600000Y-88870000D01*
X101720000Y-86630000D02*
X101720000Y-88870000D01*
X105770000Y-87750000D02*
X105120000Y-87750000D01*
X100880000Y-86630000D02*
X105120000Y-86630000D01*
X105120000Y-88870000D01*
X100880000Y-88870000D01*
X100880000Y-86630000D01*
%TO.C,SW4*%
X149950000Y-59900000D02*
X150550000Y-59900000D01*
X150250000Y-60200000D02*
X149950000Y-59900000D01*
X150550000Y-59900000D02*
X150250000Y-60200000D01*
X151650000Y-58100000D02*
X151650000Y-69900000D01*
X155750000Y-58100000D02*
X151650000Y-58100000D01*
X155750000Y-69900000D02*
X151650000Y-69900000D01*
X157250000Y-64000000D02*
X158250000Y-64000000D01*
X157750000Y-63500000D02*
X157750000Y-64500000D01*
X159750000Y-58100000D02*
X163850000Y-58100000D01*
X163850000Y-58100000D02*
X163850000Y-60500000D01*
X163850000Y-62700000D02*
X163850000Y-65300000D01*
X163850000Y-67500000D02*
X163850000Y-69900000D01*
X163850000Y-69900000D02*
X159750000Y-69900000D01*
X160750000Y-64000000D02*
G75*
G02*
X154750000Y-64000000I-3000000J0D01*
G01*
X154750000Y-64000000D02*
G75*
G02*
X160750000Y-64000000I3000000J0D01*
G01*
%TO.C,SW1*%
X111595000Y-75015000D02*
X125565000Y-75015000D01*
X111595000Y-88985000D02*
X111595000Y-75015000D01*
X125565000Y-75015000D02*
X125565000Y-88985000D01*
X125565000Y-88985000D02*
X111595000Y-88985000D01*
%TO.C,SW6*%
X149965000Y-94165000D02*
X163935000Y-94165000D01*
X149965000Y-108135000D02*
X149965000Y-94165000D01*
X163935000Y-94165000D02*
X163935000Y-108135000D01*
X163935000Y-108135000D02*
X149965000Y-108135000D01*
%TD*%
M02*
