M48
; DRILL file KiCad 10.0.3 date 2026-06-10T15:21:40
; FORMAT={-:-/ absolute / metric / decimal}
; #@! TF.CreationDate,2026-06-10T15:21:40+05:30
; #@! TF.GenerationSoftware,Kicad,Pcbnew,10.0.3
; #@! TF.FileFunction,NonPlated,1,2,NPTH
FMAT,2
METRIC
; #@! TA.AperFunction,NonPlated,NPTH,ComponentDrill
T1C1.700
; #@! TA.AperFunction,NonPlated,NPTH,ComponentDrill
T2C2.500
; #@! TA.AperFunction,NonPlated,NPTH,ComponentDrill
T3C4.000
%
G90
G05
T1
X113.5Y-82.0
X113.52Y-101.125
X123.66Y-82.0
X123.68Y-101.125
X132.62Y-82.025
X132.695Y-101.125
X142.78Y-82.025
X142.855Y-101.125
X151.82Y-82.075
X151.87Y-101.15
X161.98Y-82.075
X162.03Y-101.15
T2
X102.45Y-83.2
X145.725Y-61.975
T3
X118.58Y-82.0
X118.6Y-101.125
X137.7Y-82.025
X137.775Y-101.125
X156.9Y-82.075
X156.95Y-101.15
M30
