M48
; DRILL file KiCad 10.0.3 date 2026-06-06T21:14:50
; FORMAT={-:-/ absolute / metric / decimal}
; #@! TF.CreationDate,2026-06-06T21:14:50+05:30
; #@! TF.GenerationSoftware,Kicad,Pcbnew,10.0.3
; #@! TF.FileFunction,Plated,1,2,PTH
FMAT,2
METRIC
; #@! TA.AperFunction,Plated,PTH,ViaDrill
T1C0.300
; #@! TA.AperFunction,Plated,PTH,ComponentDrill
T2C0.800
; #@! TA.AperFunction,Plated,PTH,ComponentDrill
T3C1.000
; #@! TA.AperFunction,Plated,PTH,ComponentDrill
T4C1.500
%
G90
G05
T1
X85.05Y-73.125
X86.775Y-93.475
X90.2Y-89.225
X91.45Y-88.85
X100.3Y-69.35
X101.8Y-61.35
X107.65Y-105.525
X117.6Y-59.525
X118.4Y-96.625
X119.35Y-58.02
X123.0Y-55.67
X130.15Y-87.675
X140.8Y-67.475
X150.95Y-57.975
X151.4Y-56.45
X152.1Y-74.0
X156.9Y-55.425
X158.575Y-56.025
T2
X99.19Y-87.75
X99.19Y-91.3
X99.19Y-94.85
X99.19Y-98.4
X99.19Y-101.95
X99.19Y-105.5
X99.19Y-109.05
X106.81Y-87.75
X106.81Y-91.3
X106.81Y-94.85
X106.81Y-98.4
X106.81Y-101.95
X106.81Y-105.5
X106.81Y-109.05
T3
X89.375Y-55.88
X89.375Y-58.42
X89.375Y-60.96
X89.375Y-63.5
X89.375Y-66.04
X89.375Y-68.58
X89.375Y-71.12
X104.625Y-55.88
X104.625Y-58.42
X104.625Y-60.96
X104.625Y-63.5
X104.625Y-66.04
X104.625Y-68.58
X104.625Y-71.12
X110.725Y-57.415
X110.725Y-59.955
X110.725Y-62.495
X110.725Y-65.035
X150.25Y-61.5
X150.25Y-64.0
X150.25Y-66.5
X164.75Y-61.5
X164.75Y-66.5
T4
X114.77Y-79.46
X114.79Y-98.585
X121.12Y-76.92
X121.14Y-96.045
X133.89Y-79.485
X133.965Y-98.585
X140.24Y-76.945
X140.315Y-96.045
X153.09Y-79.535
X153.14Y-98.61
X159.44Y-76.995
X159.49Y-96.07
T4
G00X157.1Y-58.4
M15
G01X158.4Y-58.4
M16
G05
G00X157.1Y-69.6
M15
G01X158.4Y-69.6
M16
G05
M30
