%TF.GenerationSoftware,KiCad,Pcbnew,10.0.3*%
%TF.CreationDate,2026-06-06T21:14:59+05:30*%
%TF.ProjectId,hackpad,6861636b-7061-4642-9e6b-696361645f70,rev?*%
%TF.SameCoordinates,Original*%
%TF.FileFunction,Copper,L2,Bot*%
%TF.FilePolarity,Positive*%
%FSLAX46Y46*%
G04 Gerber Fmt 4.6, Leading zero omitted, Abs format (unit mm)*
G04 Created by KiCad (PCBNEW 10.0.3) date 2026-06-06 21:14:59*
%MOMM*%
%LPD*%
G01*
G04 APERTURE LIST*
G04 Aperture macros list*
%AMRoundRect*
0 Rectangle with rounded corners*
0 $1 Rounding radius*
0 $2 $3 $4 $5 $6 $7 $8 $9 X,Y pos of 4 corners*
0 Add a 4 corners polygon primitive as box body*
4,1,4,$2,$3,$4,$5,$6,$7,$8,$9,$2,$3,0*
0 Add four circle primitives for the rounded corners*
1,1,$1+$1,$2,$3*
1,1,$1+$1,$4,$5*
1,1,$1+$1,$6,$7*
1,1,$1+$1,$8,$9*
0 Add four rect primitives between the rounded corners*
20,1,$1+$1,$2,$3,$4,$5,0*
20,1,$1+$1,$4,$5,$6,$7,0*
20,1,$1+$1,$6,$7,$8,$9,0*
20,1,$1+$1,$8,$9,$2,$3,0*%
G04 Aperture macros list end*
%TA.AperFunction,ComponentPad*%
%ADD10R,1.700000X1.700000*%
%TD*%
%TA.AperFunction,ComponentPad*%
%ADD11C,1.700000*%
%TD*%
%TA.AperFunction,ComponentPad*%
%ADD12R,3.500000X1.700000*%
%TD*%
%TA.AperFunction,ComponentPad*%
%ADD13O,3.600000X1.700000*%
%TD*%
%TA.AperFunction,ComponentPad*%
%ADD14O,3.700000X1.700000*%
%TD*%
%TA.AperFunction,ComponentPad*%
%ADD15C,2.200000*%
%TD*%
%TA.AperFunction,ComponentPad*%
%ADD16RoundRect,0.250000X-0.550000X-0.550000X0.550000X-0.550000X0.550000X0.550000X-0.550000X0.550000X0*%
%TD*%
%TA.AperFunction,ComponentPad*%
%ADD17C,1.600000*%
%TD*%
%TA.AperFunction,ComponentPad*%
%ADD18R,2.000000X2.000000*%
%TD*%
%TA.AperFunction,ComponentPad*%
%ADD19C,2.000000*%
%TD*%
%TA.AperFunction,ComponentPad*%
%ADD20R,3.200000X2.000000*%
%TD*%
%TA.AperFunction,SMDPad,CuDef*%
%ADD21RoundRect,0.205000X0.470000X0.205000X-0.470000X0.205000X-0.470000X-0.205000X0.470000X-0.205000X0*%
%TD*%
%TA.AperFunction,SMDPad,CuDef*%
%ADD22RoundRect,0.205000X-0.205000X0.470000X-0.205000X-0.470000X0.205000X-0.470000X0.205000X0.470000X0*%
%TD*%
%TA.AperFunction,ViaPad*%
%ADD23C,0.600000*%
%TD*%
%TA.AperFunction,Conductor*%
%ADD24C,0.200000*%
%TD*%
G04 APERTURE END LIST*
D10*
%TO.P,J2,1,Pin_1_1*%
%TO.N,GND*%
X110725000Y-57415000D03*
D11*
%TO.P,J2,2,Pin_2_2*%
%TO.N,VCC*%
X110725000Y-59955000D03*
%TO.P,J2,3,Pin_3_3*%
%TO.N,SDA*%
X110725000Y-62495000D03*
%TO.P,J2,4,Pin_4_4*%
%TO.N,SCL*%
X110725000Y-65035000D03*
%TD*%
D12*
%TO.P,U1,1,PA02_A0_D0_1*%
%TO.N,Column 1*%
X88375000Y-55880000D03*
D13*
%TO.P,U1,2,PA4_A1_D1_2*%
%TO.N,Column 2*%
X88375000Y-58420000D03*
%TO.P,U1,3,PA10_A2_D2_3*%
%TO.N,Column 3*%
X88375000Y-60960000D03*
%TO.P,U1,4,PA11_A3_D3_4*%
%TO.N,Row 2*%
X88375000Y-63500000D03*
%TO.P,U1,5,PA8_A4_D4_SDA_5*%
%TO.N,SDA*%
X88375000Y-66040000D03*
%TO.P,U1,6,PA9_A5_D5_SCL_6*%
%TO.N,SCL*%
X88375000Y-68580000D03*
%TO.P,U1,7,PB08_A6_D6_TX_7*%
%TO.N,Row 1*%
X88375000Y-71120000D03*
%TO.P,U1,8,PB09_A7_D7_RX_8*%
%TO.N,EC11B*%
X105625000Y-71120000D03*
%TO.P,U1,9,PA7_A8_D8_SCK_9*%
%TO.N,EC11A*%
X105625000Y-68580000D03*
%TO.P,U1,10,PA5_A9_D9_MISO_10*%
%TO.N,EC11SWB*%
X105625000Y-66040000D03*
D14*
%TO.P,U1,11,PA6_A10_D10_MOSI_11*%
%TO.N,LEDPIN*%
X105625000Y-63500000D03*
%TO.P,U1,12,3V3_12*%
%TO.N,unconnected-(U1-3V3-Pad12)*%
X105625000Y-60960000D03*
%TO.P,U1,13,GND_13*%
%TO.N,GND*%
X105625000Y-58420000D03*
%TO.P,U1,14,5V_14*%
%TO.N,VCC*%
X105625000Y-55880000D03*
%TD*%
D15*
%TO.P,SW9,1,1_1*%
%TO.N,Column 2*%
X140315000Y-96045000D03*
%TO.P,SW9,2,2_2*%
%TO.N,Net-(D22-A)*%
X133965000Y-98585000D03*
%TD*%
D16*
%TO.P,D3,1,K_1*%
%TO.N,Row 2*%
X99190000Y-91300000D03*
D17*
%TO.P,D3,2,A_2*%
%TO.N,Net-(D3-A)*%
X106810000Y-91300000D03*
%TD*%
D16*
%TO.P,D5,1,K_1*%
%TO.N,Row 1*%
X99190000Y-94850000D03*
D17*
%TO.P,D5,2,A_2*%
%TO.N,Net-(D5-A)*%
X106810000Y-94850000D03*
%TD*%
D16*
%TO.P,D7,1,K_1*%
%TO.N,Row 1*%
X99190000Y-101950000D03*
D17*
%TO.P,D7,2,A_2*%
%TO.N,EC11SWA*%
X106810000Y-101950000D03*
%TD*%
D16*
%TO.P,D22,1,K_1*%
%TO.N,Row 2*%
X99190000Y-105500000D03*
D17*
%TO.P,D22,2,A_2*%
%TO.N,Net-(D22-A)*%
X106810000Y-105500000D03*
%TD*%
D16*
%TO.P,D99,1,K_1*%
%TO.N,Row 1*%
X99190000Y-109050000D03*
D17*
%TO.P,D99,2,A_2*%
%TO.N,Net-(D99-A)*%
X106810000Y-109050000D03*
%TD*%
D16*
%TO.P,D6,1,K_1*%
%TO.N,Row 1*%
X99190000Y-98400000D03*
D17*
%TO.P,D6,2,A_2*%
%TO.N,Net-(D6-A)*%
X106810000Y-98400000D03*
%TD*%
D15*
%TO.P,SW3,1,1_1*%
%TO.N,Column 2*%
X140240000Y-76945000D03*
%TO.P,SW3,2,2_2*%
%TO.N,Net-(D5-A)*%
X133890000Y-79485000D03*
%TD*%
%TO.P,SW5,1,1_1*%
%TO.N,Column 3*%
X159440000Y-76995000D03*
%TO.P,SW5,2,2_2*%
%TO.N,Net-(D6-A)*%
X153090000Y-79535000D03*
%TD*%
%TO.P,SW2,1,1_1*%
%TO.N,Column 1*%
X121140000Y-96045000D03*
%TO.P,SW2,2,2_2*%
%TO.N,Net-(D1-A)*%
X114790000Y-98585000D03*
%TD*%
D16*
%TO.P,D1,1,K_1*%
%TO.N,Row 2*%
X99190000Y-87750000D03*
D17*
%TO.P,D1,2,A_2*%
%TO.N,Net-(D1-A)*%
X106810000Y-87750000D03*
%TD*%
D18*
%TO.P,SW4,A,A_A*%
%TO.N,EC11A*%
X150250000Y-61500000D03*
D19*
%TO.P,SW4,B,B_B*%
%TO.N,EC11B*%
X150250000Y-66500000D03*
%TO.P,SW4,C,C_C*%
%TO.N,GND*%
X150250000Y-64000000D03*
D20*
%TO.P,SW4,MP*%
%TO.N,N/C*%
X157750000Y-58400000D03*
X157750000Y-69600000D03*
D19*
%TO.P,SW4,S1,S1_S1*%
%TO.N,EC11SWB*%
X164750000Y-66500000D03*
%TO.P,SW4,S2,S2_S2*%
%TO.N,EC11SWA*%
X164750000Y-61500000D03*
%TD*%
D15*
%TO.P,SW1,1,1_1*%
%TO.N,Column 1*%
X121120000Y-76920000D03*
%TO.P,SW1,2,2_2*%
%TO.N,Net-(D99-A)*%
X114770000Y-79460000D03*
%TD*%
%TO.P,SW6,1,1_1*%
%TO.N,Column 3*%
X159490000Y-96070000D03*
%TO.P,SW6,2,2_2*%
%TO.N,Net-(D3-A)*%
X153140000Y-98610000D03*
%TD*%
D21*
%TO.P,D10,1,VSS_1*%
%TO.N,GND*%
X130100000Y-54475000D03*
%TO.P,D10,2,DIN_2*%
%TO.N,Net-(D10-DIN)*%
X130100000Y-52975000D03*
%TO.P,D10,3,VDD_3*%
%TO.N,VCC*%
X124650000Y-52975000D03*
%TO.P,D10,4,DOUT_4*%
%TO.N,Net-(D10-DOUT)*%
X124650000Y-54475000D03*
%TD*%
%TO.P,D9,1,VSS_1*%
%TO.N,GND*%
X165725000Y-54725000D03*
%TO.P,D9,2,DIN_2*%
%TO.N,Net-(D8-DOUT)*%
X165725000Y-53225000D03*
%TO.P,D9,3,VDD_3*%
%TO.N,VCC*%
X160275000Y-53225000D03*
%TO.P,D9,4,DOUT_4*%
%TO.N,Net-(D10-DIN)*%
X160275000Y-54725000D03*
%TD*%
D22*
%TO.P,D2,1,VSS_1*%
%TO.N,GND*%
X86550000Y-77450000D03*
%TO.P,D2,2,DIN_2*%
%TO.N,Net-(D10-DOUT)*%
X85050000Y-77450000D03*
%TO.P,D2,3,VDD_3*%
%TO.N,VCC*%
X85050000Y-82900000D03*
%TO.P,D2,4,DOUT_4*%
%TO.N,unconnected-(D2-DOUT-Pad4)*%
X86550000Y-82900000D03*
%TD*%
%TO.P,D8,1,VSS_1*%
%TO.N,GND*%
X86650000Y-104500000D03*
%TO.P,D8,2,DIN_2*%
%TO.N,LEDPIN*%
X85150000Y-104500000D03*
%TO.P,D8,3,VDD_3*%
%TO.N,VCC*%
X85150000Y-109950000D03*
%TO.P,D8,4,DOUT_4*%
%TO.N,Net-(D8-DOUT)*%
X86650000Y-109950000D03*
%TD*%
D23*
%TO.N,VCC*%
X117600000Y-59525000D03*
X151400000Y-56450000D03*
X150950000Y-57975000D03*
X119350000Y-58020000D03*
%TO.N,Column 3*%
X101800000Y-61350000D03*
%TO.N,Row 1*%
X91450000Y-88850000D03*
%TO.N,EC11SWB*%
X140800000Y-67475000D03*
X152100000Y-74000000D03*
%TO.N,LEDPIN*%
X90200000Y-89225000D03*
X86775000Y-93475000D03*
X100300000Y-69350000D03*
%TO.N,Net-(D22-A)*%
X107650000Y-105525000D03*
%TO.N,Net-(D99-A)*%
X118400000Y-96625000D03*
%TO.N,Net-(D6-A)*%
X130150000Y-87675000D03*
%TO.N,Net-(D10-DIN)*%
X158575000Y-56025000D03*
X156900000Y-55425000D03*
%TO.N,Net-(D10-DOUT)*%
X123000000Y-55670000D03*
X85050000Y-73125000D03*
%TD*%
%TO.N,GND*%
D24*
X112265000Y-57415000D02*
X110725000Y-57415000D01*
X166275000Y-55275000D02*
X166275000Y-57125000D01*
X130100000Y-54475000D02*
X130100000Y-55725000D01*
X130100000Y-55725000D02*
X130100000Y-57700000D01*
X128975000Y-58825000D02*
X128850000Y-58700000D01*
X98811346Y-58420000D02*
X104625000Y-58420000D01*
X166250000Y-57100000D02*
X131475000Y-57100000D01*
X86140000Y-77040000D02*
X86140000Y-68238654D01*
X88350000Y-77450000D02*
X88425000Y-77375000D01*
X88425000Y-77375000D02*
X88925000Y-77875000D01*
X128850000Y-58700000D02*
X113550000Y-58700000D01*
X165725000Y-54725000D02*
X166275000Y-55275000D01*
X131475000Y-57100000D02*
X130100000Y-55725000D01*
X130100000Y-57700000D02*
X128975000Y-58825000D01*
X86550000Y-77450000D02*
X86140000Y-77040000D01*
X113550000Y-58700000D02*
X112265000Y-57415000D01*
X166275000Y-57125000D02*
X166250000Y-57100000D01*
X88925000Y-77875000D02*
X88925000Y-100050000D01*
X86650000Y-102325000D02*
X86650000Y-104500000D01*
X86140000Y-68238654D02*
X86948654Y-67430000D01*
X88925000Y-100050000D02*
X86650000Y-102325000D01*
X86550000Y-77450000D02*
X88350000Y-77450000D01*
X86948654Y-67430000D02*
X89801346Y-67430000D01*
X89801346Y-67430000D02*
X98811346Y-58420000D01*
%TO.N,VCC*%
X83400000Y-53325000D02*
X102070000Y-53325000D01*
X105880000Y-55880000D02*
X109955000Y-59955000D01*
X83400000Y-82375000D02*
X83400000Y-53325000D01*
X157050000Y-56450000D02*
X151400000Y-56450000D01*
X104625000Y-55880000D02*
X105880000Y-55880000D01*
X160275000Y-53225000D02*
X157050000Y-56450000D01*
X83925000Y-82900000D02*
X83400000Y-82375000D01*
X150950000Y-57975000D02*
X149400000Y-59525000D01*
X102070000Y-53325000D02*
X104625000Y-55880000D01*
X119350000Y-58020000D02*
X119605000Y-58020000D01*
X83400000Y-84550000D02*
X83400000Y-110100000D01*
X85050000Y-82900000D02*
X83400000Y-84550000D01*
X83550000Y-109950000D02*
X85150000Y-109950000D01*
X85050000Y-82900000D02*
X83925000Y-82900000D01*
X119605000Y-58020000D02*
X124650000Y-52975000D01*
X149400000Y-59525000D02*
X117600000Y-59525000D01*
X109955000Y-59955000D02*
X110725000Y-59955000D01*
X83400000Y-110100000D02*
X83550000Y-109950000D01*
%TO.N,SCL*%
X107051346Y-67190000D02*
X107725000Y-66516346D01*
X107725000Y-66475000D02*
X109165000Y-65035000D01*
X107725000Y-66516346D02*
X107725000Y-66475000D01*
X89375000Y-68580000D02*
X90525000Y-67430000D01*
X90525000Y-67430000D02*
X106770000Y-67430000D01*
X109165000Y-65035000D02*
X110725000Y-65035000D01*
X106770000Y-67430000D02*
X107010000Y-67190000D01*
X107010000Y-67190000D02*
X107051346Y-67190000D01*
%TO.N,Column 3*%
X158365000Y-76995000D02*
X159440000Y-76995000D01*
X145260000Y-63890000D02*
X158365000Y-76995000D01*
X108261346Y-62301346D02*
X109850000Y-63890000D01*
X102751346Y-62301346D02*
X108261346Y-62301346D01*
X101800000Y-61350000D02*
X102751346Y-62301346D01*
X109850000Y-63890000D02*
X145260000Y-63890000D01*
%TO.N,Row 1*%
X91450000Y-88850000D02*
X97450000Y-94850000D01*
X97450000Y-94850000D02*
X99190000Y-94850000D01*
%TO.N,EC11SWB*%
X147325000Y-74000000D02*
X152100000Y-74000000D01*
X140800000Y-67475000D02*
X147325000Y-74000000D01*
%TO.N,LEDPIN*%
X86775000Y-94775000D02*
X85150000Y-96400000D01*
X86775000Y-93475000D02*
X86775000Y-94775000D01*
X90200000Y-89225000D02*
X90200000Y-79450000D01*
X85150000Y-96400000D02*
X85150000Y-104500000D01*
X90200000Y-79450000D02*
X100300000Y-69350000D01*
%TO.N,Net-(D22-A)*%
X133965000Y-98585000D02*
X133165000Y-98585000D01*
X133165000Y-98585000D02*
X126225000Y-105525000D01*
X126225000Y-105525000D02*
X107650000Y-105525000D01*
%TO.N,Net-(D3-A)*%
X153140000Y-98610000D02*
X147530000Y-93000000D01*
X110350000Y-93000000D02*
X108650000Y-91300000D01*
X147530000Y-93000000D02*
X110350000Y-93000000D01*
X108650000Y-91300000D02*
X106810000Y-91300000D01*
%TO.N,Net-(D5-A)*%
X106354365Y-90200000D02*
X105710000Y-90844365D01*
X133890000Y-79485000D02*
X124477944Y-79485000D01*
X124477944Y-79485000D02*
X113762944Y-90200000D01*
X105710000Y-90844365D02*
X105710000Y-93750000D01*
X113762944Y-90200000D02*
X106354365Y-90200000D01*
X105710000Y-93750000D02*
X106810000Y-94850000D01*
%TO.N,Net-(D99-A)*%
X118400000Y-96625000D02*
X114129365Y-96625000D01*
X114129365Y-96625000D02*
X105710000Y-105044365D01*
X105710000Y-107950000D02*
X106810000Y-109050000D01*
X105710000Y-105044365D02*
X105710000Y-107950000D01*
%TO.N,Net-(D6-A)*%
X153090000Y-79535000D02*
X146967056Y-79535000D01*
X146967056Y-79535000D02*
X138827056Y-87675000D01*
X138827056Y-87675000D02*
X130150000Y-87675000D01*
%TO.N,Net-(D10-DIN)*%
X154450000Y-52975000D02*
X156900000Y-55425000D01*
X158975000Y-56025000D02*
X160275000Y-54725000D01*
X130100000Y-52975000D02*
X154450000Y-52975000D01*
X158575000Y-56025000D02*
X158975000Y-56025000D01*
%TO.N,Net-(D10-DOUT)*%
X123455000Y-55670000D02*
X123000000Y-55670000D01*
X85050000Y-73125000D02*
X85050000Y-77450000D01*
X124650000Y-54475000D02*
X123455000Y-55670000D01*
%TO.N,Net-(D8-DOUT)*%
X166700000Y-108225000D02*
X164225000Y-110700000D01*
X87400000Y-110700000D02*
X86650000Y-109950000D01*
X165725000Y-53225000D02*
X166700000Y-54200000D01*
X164225000Y-110700000D02*
X87400000Y-110700000D01*
X166700000Y-54200000D02*
X166700000Y-108225000D01*
%TD*%
M02*
