%TF.GenerationSoftware,KiCad,Pcbnew,10.0.3*%
%TF.CreationDate,2026-06-06T21:14:59+05:30*%
%TF.ProjectId,hackpad,6861636b-7061-4642-9e6b-696361645f70,rev?*%
%TF.SameCoordinates,Original*%
%TF.FileFunction,Copper,L1,Top*%
%TF.FilePolarity,Positive*%
%FSLAX46Y46*%
G04 Gerber Fmt 4.6, Leading zero omitted, Abs format (unit mm)*
G04 Created by KiCad (PCBNEW 10.0.3) date 2026-06-06 21:14:59*
%MOMM*%
%LPD*%
G01*
G04 APERTURE LIST*
G04 Aperture macros list*
%AMRoundRect*
0 Rectangle with rounded corners*
0 $1 Rounding radius*
0 $2 $3 $4 $5 $6 $7 $8 $9 X,Y pos of 4 corners*
0 Add a 4 corners polygon primitive as box body*
4,1,4,$2,$3,$4,$5,$6,$7,$8,$9,$2,$3,0*
0 Add four circle primitives for the rounded corners*
1,1,$1+$1,$2,$3*
1,1,$1+$1,$4,$5*
1,1,$1+$1,$6,$7*
1,1,$1+$1,$8,$9*
0 Add four rect primitives between the rounded corners*
20,1,$1+$1,$2,$3,$4,$5,0*
20,1,$1+$1,$4,$5,$6,$7,0*
20,1,$1+$1,$6,$7,$8,$9,0*
20,1,$1+$1,$8,$9,$2,$3,0*%
G04 Aperture macros list end*
%TA.AperFunction,ComponentPad*%
%ADD10R,1.700000X1.700000*%
%TD*%
%TA.AperFunction,ComponentPad*%
%ADD11C,1.700000*%
%TD*%
%TA.AperFunction,ComponentPad*%
%ADD12R,3.500000X1.700000*%
%TD*%
%TA.AperFunction,ComponentPad*%
%ADD13O,3.600000X1.700000*%
%TD*%
%TA.AperFunction,ComponentPad*%
%ADD14O,3.700000X1.700000*%
%TD*%
%TA.AperFunction,ComponentPad*%
%ADD15C,2.200000*%
%TD*%
%TA.AperFunction,ComponentPad*%
%ADD16RoundRect,0.250000X-0.550000X-0.550000X0.550000X-0.550000X0.550000X0.550000X-0.550000X0.550000X0*%
%TD*%
%TA.AperFunction,ComponentPad*%
%ADD17C,1.600000*%
%TD*%
%TA.AperFunction,ComponentPad*%
%ADD18R,2.000000X2.000000*%
%TD*%
%TA.AperFunction,ComponentPad*%
%ADD19C,2.000000*%
%TD*%
%TA.AperFunction,ComponentPad*%
%ADD20R,3.200000X2.000000*%
%TD*%
%TA.AperFunction,ViaPad*%
%ADD21C,0.600000*%
%TD*%
%TA.AperFunction,Conductor*%
%ADD22C,0.200000*%
%TD*%
G04 APERTURE END LIST*
D10*
%TO.P,J2,1,Pin_1_1*%
%TO.N,GND*%
X110725000Y-57415000D03*
D11*
%TO.P,J2,2,Pin_2_2*%
%TO.N,VCC*%
X110725000Y-59955000D03*
%TO.P,J2,3,Pin_3_3*%
%TO.N,SDA*%
X110725000Y-62495000D03*
%TO.P,J2,4,Pin_4_4*%
%TO.N,SCL*%
X110725000Y-65035000D03*
%TD*%
D12*
%TO.P,U1,1,PA02_A0_D0_1*%
%TO.N,Column 1*%
X88375000Y-55880000D03*
D13*
%TO.P,U1,2,PA4_A1_D1_2*%
%TO.N,Column 2*%
X88375000Y-58420000D03*
%TO.P,U1,3,PA10_A2_D2_3*%
%TO.N,Column 3*%
X88375000Y-60960000D03*
%TO.P,U1,4,PA11_A3_D3_4*%
%TO.N,Row 2*%
X88375000Y-63500000D03*
%TO.P,U1,5,PA8_A4_D4_SDA_5*%
%TO.N,SDA*%
X88375000Y-66040000D03*
%TO.P,U1,6,PA9_A5_D5_SCL_6*%
%TO.N,SCL*%
X88375000Y-68580000D03*
%TO.P,U1,7,PB08_A6_D6_TX_7*%
%TO.N,Row 1*%
X88375000Y-71120000D03*
%TO.P,U1,8,PB09_A7_D7_RX_8*%
%TO.N,EC11B*%
X105625000Y-71120000D03*
%TO.P,U1,9,PA7_A8_D8_SCK_9*%
%TO.N,EC11A*%
X105625000Y-68580000D03*
%TO.P,U1,10,PA5_A9_D9_MISO_10*%
%TO.N,EC11SWB*%
X105625000Y-66040000D03*
D14*
%TO.P,U1,11,PA6_A10_D10_MOSI_11*%
%TO.N,LEDPIN*%
X105625000Y-63500000D03*
%TO.P,U1,12,3V3_12*%
%TO.N,unconnected-(U1-3V3-Pad12)*%
X105625000Y-60960000D03*
%TO.P,U1,13,GND_13*%
%TO.N,GND*%
X105625000Y-58420000D03*
%TO.P,U1,14,5V_14*%
%TO.N,VCC*%
X105625000Y-55880000D03*
%TD*%
D15*
%TO.P,SW9,1,1_1*%
%TO.N,Column 2*%
X140315000Y-96045000D03*
%TO.P,SW9,2,2_2*%
%TO.N,Net-(D22-A)*%
X133965000Y-98585000D03*
%TD*%
D16*
%TO.P,D3,1,K_1*%
%TO.N,Row 2*%
X99190000Y-91300000D03*
D17*
%TO.P,D3,2,A_2*%
%TO.N,Net-(D3-A)*%
X106810000Y-91300000D03*
%TD*%
D16*
%TO.P,D5,1,K_1*%
%TO.N,Row 1*%
X99190000Y-94850000D03*
D17*
%TO.P,D5,2,A_2*%
%TO.N,Net-(D5-A)*%
X106810000Y-94850000D03*
%TD*%
D16*
%TO.P,D7,1,K_1*%
%TO.N,Row 1*%
X99190000Y-101950000D03*
D17*
%TO.P,D7,2,A_2*%
%TO.N,EC11SWA*%
X106810000Y-101950000D03*
%TD*%
D16*
%TO.P,D22,1,K_1*%
%TO.N,Row 2*%
X99190000Y-105500000D03*
D17*
%TO.P,D22,2,A_2*%
%TO.N,Net-(D22-A)*%
X106810000Y-105500000D03*
%TD*%
D16*
%TO.P,D99,1,K_1*%
%TO.N,Row 1*%
X99190000Y-109050000D03*
D17*
%TO.P,D99,2,A_2*%
%TO.N,Net-(D99-A)*%
X106810000Y-109050000D03*
%TD*%
D16*
%TO.P,D6,1,K_1*%
%TO.N,Row 1*%
X99190000Y-98400000D03*
D17*
%TO.P,D6,2,A_2*%
%TO.N,Net-(D6-A)*%
X106810000Y-98400000D03*
%TD*%
D15*
%TO.P,SW3,1,1_1*%
%TO.N,Column 2*%
X140240000Y-76945000D03*
%TO.P,SW3,2,2_2*%
%TO.N,Net-(D5-A)*%
X133890000Y-79485000D03*
%TD*%
%TO.P,SW5,1,1_1*%
%TO.N,Column 3*%
X159440000Y-76995000D03*
%TO.P,SW5,2,2_2*%
%TO.N,Net-(D6-A)*%
X153090000Y-79535000D03*
%TD*%
%TO.P,SW2,1,1_1*%
%TO.N,Column 1*%
X121140000Y-96045000D03*
%TO.P,SW2,2,2_2*%
%TO.N,Net-(D1-A)*%
X114790000Y-98585000D03*
%TD*%
D16*
%TO.P,D1,1,K_1*%
%TO.N,Row 2*%
X99190000Y-87750000D03*
D17*
%TO.P,D1,2,A_2*%
%TO.N,Net-(D1-A)*%
X106810000Y-87750000D03*
%TD*%
D18*
%TO.P,SW4,A,A_A*%
%TO.N,EC11A*%
X150250000Y-61500000D03*
D19*
%TO.P,SW4,B,B_B*%
%TO.N,EC11B*%
X150250000Y-66500000D03*
%TO.P,SW4,C,C_C*%
%TO.N,GND*%
X150250000Y-64000000D03*
D20*
%TO.P,SW4,MP*%
%TO.N,N/C*%
X157750000Y-58400000D03*
X157750000Y-69600000D03*
D19*
%TO.P,SW4,S1,S1_S1*%
%TO.N,EC11SWB*%
X164750000Y-66500000D03*
%TO.P,SW4,S2,S2_S2*%
%TO.N,EC11SWA*%
X164750000Y-61500000D03*
%TD*%
D15*
%TO.P,SW1,1,1_1*%
%TO.N,Column 1*%
X121120000Y-76920000D03*
%TO.P,SW1,2,2_2*%
%TO.N,Net-(D99-A)*%
X114770000Y-79460000D03*
%TD*%
%TO.P,SW6,1,1_1*%
%TO.N,Column 3*%
X159490000Y-96070000D03*
%TO.P,SW6,2,2_2*%
%TO.N,Net-(D3-A)*%
X153140000Y-98610000D03*
%TD*%
D21*
%TO.N,VCC*%
X117600000Y-59525000D03*
X151400000Y-56450000D03*
X150950000Y-57975000D03*
X119350000Y-58020000D03*
%TO.N,Column 3*%
X101800000Y-61350000D03*
%TO.N,Row 1*%
X91450000Y-88850000D03*
%TO.N,EC11SWB*%
X140800000Y-67475000D03*
X152100000Y-74000000D03*
%TO.N,LEDPIN*%
X90200000Y-89225000D03*
X86775000Y-93475000D03*
X100300000Y-69350000D03*
%TO.N,Net-(D22-A)*%
X107650000Y-105525000D03*
%TO.N,Net-(D99-A)*%
X118400000Y-96625000D03*
%TO.N,Net-(D6-A)*%
X130150000Y-87675000D03*
%TO.N,Net-(D10-DIN)*%
X158575000Y-56025000D03*
X156900000Y-55425000D03*
%TO.N,Net-(D10-DOUT)*%
X123000000Y-55670000D03*
X85050000Y-73125000D03*
%TD*%
%TO.N,GND*%
D22*
X151550000Y-62700000D02*
X151550000Y-60200000D01*
X110000000Y-58420000D02*
X104625000Y-58420000D01*
X148770000Y-57420000D02*
X111000000Y-57420000D01*
X151550000Y-60200000D02*
X148770000Y-57420000D01*
X111000000Y-57420000D02*
X110000000Y-58420000D01*
X150250000Y-64000000D02*
X151550000Y-62700000D01*
%TO.N,VCC*%
X117170000Y-59955000D02*
X117600000Y-59525000D01*
X117600000Y-59525000D02*
X117600000Y-58300000D01*
X117775000Y-58125000D02*
X119245000Y-58125000D01*
X151400000Y-57525000D02*
X150950000Y-57975000D01*
X117600000Y-58300000D02*
X117775000Y-58125000D01*
X119245000Y-58125000D02*
X119350000Y-58020000D01*
X110725000Y-59955000D02*
X117170000Y-59955000D01*
X151400000Y-56450000D02*
X151400000Y-57525000D01*
%TO.N,SDA*%
X107101346Y-62110000D02*
X107411346Y-61800000D01*
X88338654Y-66040000D02*
X86275000Y-63976346D01*
X102048529Y-61950000D02*
X102198529Y-61800000D01*
X110030000Y-61800000D02*
X110725000Y-62495000D01*
X101551471Y-61950000D02*
X102048529Y-61950000D01*
X101401471Y-61800000D02*
X101551471Y-61950000D01*
X86275000Y-63976346D02*
X86275000Y-63023654D01*
X104148654Y-62110000D02*
X107101346Y-62110000D01*
X89801346Y-62110000D02*
X90111346Y-61800000D01*
X107411346Y-61800000D02*
X110030000Y-61800000D01*
X90111346Y-61800000D02*
X101401471Y-61800000D01*
X102198529Y-61800000D02*
X103838654Y-61800000D01*
X87188654Y-62110000D02*
X89801346Y-62110000D01*
X89375000Y-66040000D02*
X88338654Y-66040000D01*
X103838654Y-61800000D02*
X104148654Y-62110000D01*
X86275000Y-63023654D02*
X87188654Y-62110000D01*
%TO.N,Column 1*%
X107717056Y-76920000D02*
X121120000Y-76920000D01*
X85875000Y-58736346D02*
X86948654Y-59810000D01*
X121120000Y-79470000D02*
X121120000Y-76920000D01*
X107101346Y-64650000D02*
X104148654Y-64650000D01*
X85875000Y-58343654D02*
X85875000Y-58736346D01*
X121140000Y-96045000D02*
X121140000Y-79490000D01*
X88338654Y-55880000D02*
X85875000Y-58343654D01*
X111476346Y-63650000D02*
X108101346Y-63650000D01*
X89375000Y-55880000D02*
X88338654Y-55880000D01*
X108101346Y-63650000D02*
X107101346Y-64650000D01*
X108983654Y-59810000D02*
X110523654Y-61350000D01*
X104148654Y-64650000D02*
X103475000Y-65323654D01*
X103475000Y-65323654D02*
X103475000Y-72677944D01*
X112150000Y-62023654D02*
X112150000Y-62976346D01*
X112150000Y-62976346D02*
X111476346Y-63650000D01*
X86948654Y-59810000D02*
X108983654Y-59810000D01*
X103475000Y-72677944D02*
X107717056Y-76920000D01*
X110523654Y-61350000D02*
X111476346Y-61350000D01*
X121140000Y-79490000D02*
X121120000Y-79470000D01*
X111476346Y-61350000D02*
X112150000Y-62023654D01*
%TO.N,Column 2*%
X109575000Y-56265000D02*
X111875000Y-56265000D01*
X109575000Y-56650000D02*
X109575000Y-56265000D01*
X140315000Y-77020000D02*
X140240000Y-76945000D01*
X108955000Y-57270000D02*
X109575000Y-56650000D01*
X151950000Y-66638478D02*
X141643478Y-76945000D01*
X140315000Y-96045000D02*
X140315000Y-77020000D01*
X141643478Y-76945000D02*
X140240000Y-76945000D01*
X90525000Y-57270000D02*
X108955000Y-57270000D01*
X89375000Y-58420000D02*
X90525000Y-57270000D01*
X111875000Y-56265000D02*
X111875000Y-56270000D01*
X148185685Y-56270000D02*
X151950000Y-60034315D01*
X111875000Y-56270000D02*
X148185685Y-56270000D01*
X151950000Y-60034315D02*
X151950000Y-66638478D01*
%TO.N,Column 3*%
X89375000Y-60960000D02*
X101410000Y-60960000D01*
X101410000Y-60960000D02*
X101800000Y-61350000D01*
X159490000Y-77045000D02*
X159440000Y-76995000D01*
X159490000Y-96070000D02*
X159490000Y-77045000D01*
%TO.N,Row 2*%
X99190000Y-73315000D02*
X99190000Y-87750000D01*
X98090000Y-104400000D02*
X99190000Y-105500000D01*
X99190000Y-87750000D02*
X99190000Y-91300000D01*
X99190000Y-91300000D02*
X98090000Y-92400000D01*
X98090000Y-92400000D02*
X98090000Y-104400000D01*
X89375000Y-63500000D02*
X99190000Y-73315000D01*
%TO.N,Row 1*%
X100290000Y-103050000D02*
X99190000Y-101950000D01*
X100290000Y-107950000D02*
X100290000Y-103050000D01*
X99190000Y-98400000D02*
X99190000Y-94850000D01*
X89375000Y-71120000D02*
X89375000Y-86775000D01*
X89375000Y-86775000D02*
X91450000Y-88850000D01*
X99190000Y-109050000D02*
X100290000Y-107950000D01*
X99190000Y-101950000D02*
X99190000Y-98400000D01*
%TO.N,EC11B*%
X150250000Y-66500000D02*
X145630000Y-71120000D01*
X145630000Y-71120000D02*
X104625000Y-71120000D01*
%TO.N,EC11A*%
X143170000Y-68580000D02*
X104625000Y-68580000D01*
X150250000Y-61500000D02*
X143170000Y-68580000D01*
%TO.N,EC11SWB*%
X104625000Y-66040000D02*
X107635660Y-66040000D01*
X140450000Y-67825000D02*
X140800000Y-67475000D01*
X157250000Y-74000000D02*
X164750000Y-66500000D01*
X109420660Y-67825000D02*
X140450000Y-67825000D01*
X152100000Y-74000000D02*
X157250000Y-74000000D01*
X107635660Y-66040000D02*
X109420660Y-67825000D01*
%TO.N,LEDPIN*%
X87500000Y-91925000D02*
X90200000Y-89225000D01*
X86775000Y-93475000D02*
X87500000Y-92750000D01*
X100300000Y-67825000D02*
X104625000Y-63500000D01*
X100300000Y-69350000D02*
X100300000Y-67825000D01*
X87500000Y-92750000D02*
X87500000Y-91925000D01*
%TO.N,Net-(D3-A)*%
X106810000Y-91300000D02*
X106810000Y-91315000D01*
X106810000Y-91315000D02*
X106800000Y-91325000D01*
%TO.N,EC11SWA*%
X143980000Y-98243402D02*
X138748402Y-103475000D01*
X162650000Y-61500000D02*
X143980000Y-80170000D01*
X138748402Y-103475000D02*
X108335000Y-103475000D01*
X143980000Y-80170000D02*
X143980000Y-98243402D01*
X164750000Y-61500000D02*
X162650000Y-61500000D01*
X108335000Y-103475000D02*
X106810000Y-101950000D01*
%TO.N,Net-(D99-A)*%
X114770000Y-79460000D02*
X114770000Y-92995000D01*
X114770000Y-92995000D02*
X118400000Y-96625000D01*
%TO.N,Net-(D6-A)*%
X120525000Y-98775000D02*
X116579899Y-98775000D01*
X114492056Y-100400000D02*
X112492056Y-98400000D01*
X130150000Y-87675000D02*
X130150000Y-89150000D01*
X114954899Y-100400000D02*
X114492056Y-100400000D01*
X116579899Y-98775000D02*
X114954899Y-100400000D01*
X130150000Y-89150000D02*
X120525000Y-98775000D01*
X112492056Y-98400000D02*
X106810000Y-98400000D01*
%TO.N,Net-(D1-A)*%
X114790000Y-98585000D02*
X114790000Y-94240000D01*
X108300000Y-87750000D02*
X106810000Y-87750000D01*
X114790000Y-94240000D02*
X108300000Y-87750000D01*
%TO.N,Net-(D10-DIN)*%
X157975000Y-55425000D02*
X158575000Y-56025000D01*
X156900000Y-55425000D02*
X157975000Y-55425000D01*
%TO.N,Net-(D10-DOUT)*%
X123000000Y-55670000D02*
X120280000Y-52950000D01*
X85175000Y-73000000D02*
X85050000Y-73125000D01*
X120280000Y-52950000D02*
X85175000Y-52950000D01*
X85175000Y-52950000D02*
X85175000Y-73000000D01*
%TD*%
M02*
