M48
; DRILL file KiCad 10.0.3 date 2026-06-10T15:21:40
; FORMAT={-:-/ absolute / metric / decimal}
; #@! TF.CreationDate,2026-06-10T15:21:40+05:30
; #@! TF.GenerationSoftware,Kicad,Pcbnew,10.0.3
; #@! TF.FileFunction,Plated,1,2,PTH
FMAT,2
METRIC
; #@! TA.AperFunction,Plated,PTH,ViaDrill
T1C0.300
; #@! TA.AperFunction,Plated,PTH,ComponentDrill
T2C0.800
; #@! TA.AperFunction,Plated,PTH,ComponentDrill
T3C1.000
; #@! TA.AperFunction,Plated,PTH,ComponentDrill
T4C1.500
%
G90
G05
T1
X89.475Y-92.725
X90.05Y-79.525
X91.725Y-80.475
X93.35Y-87.975
X93.775Y-82.3
X94.2Y-77.55
X95.75Y-84.7
X97.35Y-77.0
X99.525Y-68.925
X100.675Y-77.075
X102.325Y-77.75
X113.825Y-62.4
X114.125Y-60.125
X133.35Y-62.675
X143.6Y-67.175
T2
X99.015Y-88.675
X99.165Y-91.7
X99.165Y-95.25
X99.165Y-98.8
X99.165Y-102.35
X99.19Y-105.5
X106.635Y-88.675
X106.785Y-91.7
X106.785Y-95.25
X106.785Y-98.8
X106.785Y-102.35
X106.81Y-105.5
X145.59Y-55.55
X153.21Y-55.55
T3
X89.375Y-55.88
X89.375Y-58.42
X89.375Y-60.96
X89.375Y-63.5
X89.375Y-66.04
X89.375Y-68.58
X89.375Y-71.12
X104.625Y-55.88
X104.625Y-58.42
X104.625Y-60.96
X104.625Y-63.5
X104.625Y-66.04
X104.625Y-68.58
X104.625Y-71.12
X110.725Y-57.415
X110.725Y-59.955
X110.725Y-62.495
X110.725Y-65.035
X150.25Y-61.5
X150.25Y-64.0
X150.25Y-66.5
X164.75Y-61.5
X164.75Y-66.5
T4
X114.77Y-79.46
X114.79Y-98.585
X121.12Y-76.92
X121.14Y-96.045
X133.89Y-79.485
X133.965Y-98.585
X140.24Y-76.945
X140.315Y-96.045
X153.09Y-79.535
X153.14Y-98.61
X159.44Y-76.995
X159.49Y-96.07
T4
G00X157.1Y-58.4
M15
G01X158.4Y-58.4
M16
G05
G00X157.1Y-69.6
M15
G01X158.4Y-69.6
M16
G05
M30
