%TF.GenerationSoftware,KiCad,Pcbnew,10.0.3*%
%TF.CreationDate,2026-06-10T15:21:41+05:30*%
%TF.ProjectId,hackpad,6861636b-7061-4642-9e6b-696361645f70,rev?*%
%TF.SameCoordinates,Original*%
%TF.FileFunction,Copper,L2,Bot*%
%TF.FilePolarity,Positive*%
%FSLAX46Y46*%
G04 Gerber Fmt 4.6, Leading zero omitted, Abs format (unit mm)*
G04 Created by KiCad (PCBNEW 10.0.3) date 2026-06-10 15:21:41*
%MOMM*%
%LPD*%
G01*
G04 APERTURE LIST*
G04 Aperture macros list*
%AMRoundRect*
0 Rectangle with rounded corners*
0 $1 Rounding radius*
0 $2 $3 $4 $5 $6 $7 $8 $9 X,Y pos of 4 corners*
0 Add a 4 corners polygon primitive as box body*
4,1,4,$2,$3,$4,$5,$6,$7,$8,$9,$2,$3,0*
0 Add four circle primitives for the rounded corners*
1,1,$1+$1,$2,$3*
1,1,$1+$1,$4,$5*
1,1,$1+$1,$6,$7*
1,1,$1+$1,$8,$9*
0 Add four rect primitives between the rounded corners*
20,1,$1+$1,$2,$3,$4,$5,0*
20,1,$1+$1,$4,$5,$6,$7,0*
20,1,$1+$1,$6,$7,$8,$9,0*
20,1,$1+$1,$8,$9,$2,$3,0*%
G04 Aperture macros list end*
%TA.AperFunction,SMDPad,CuDef*%
%ADD10RoundRect,0.090000X0.660000X0.360000X-0.660000X0.360000X-0.660000X-0.360000X0.660000X-0.360000X0*%
%TD*%
%TA.AperFunction,SMDPad,CuDef*%
%ADD11RoundRect,0.090000X-0.360000X0.660000X-0.360000X-0.660000X0.360000X-0.660000X0.360000X0.660000X0*%
%TD*%
%TA.AperFunction,ComponentPad*%
%ADD12C,2.200000*%
%TD*%
%TA.AperFunction,ComponentPad*%
%ADD13C,2.000000*%
%TD*%
%TA.AperFunction,ComponentPad*%
%ADD14R,3.200000X2.000000*%
%TD*%
%TA.AperFunction,ComponentPad*%
%ADD15R,2.000000X2.000000*%
%TD*%
%TA.AperFunction,ComponentPad*%
%ADD16R,1.700000X1.700000*%
%TD*%
%TA.AperFunction,ComponentPad*%
%ADD17C,1.700000*%
%TD*%
%TA.AperFunction,ComponentPad*%
%ADD18R,3.500000X1.700000*%
%TD*%
%TA.AperFunction,ComponentPad*%
%ADD19O,3.600000X1.700000*%
%TD*%
%TA.AperFunction,ComponentPad*%
%ADD20O,3.700000X1.700000*%
%TD*%
%TA.AperFunction,ComponentPad*%
%ADD21RoundRect,0.250000X-0.550000X-0.550000X0.550000X-0.550000X0.550000X0.550000X-0.550000X0.550000X0*%
%TD*%
%TA.AperFunction,ComponentPad*%
%ADD22C,1.600000*%
%TD*%
%TA.AperFunction,ViaPad*%
%ADD23C,0.600000*%
%TD*%
%TA.AperFunction,Conductor*%
%ADD24C,0.200000*%
%TD*%
G04 APERTURE END LIST*
D10*
%TO.P,D10,1,VSS_1*%
%TO.N,GND*%
X125800000Y-55025000D03*
%TO.P,D10,2,DIN_2*%
%TO.N,Net-(D10-DIN)*%
X125800000Y-58325000D03*
%TO.P,D10,3,VDD_3*%
%TO.N,VCC*%
X120900000Y-58325000D03*
%TO.P,D10,4,DOUT_4*%
%TO.N,Net-(D10-DOUT)*%
X120900000Y-55025000D03*
%TD*%
%TO.P,D9,1,VSS_1*%
%TO.N,GND*%
X166150000Y-53800000D03*
%TO.P,D9,2,DIN_2*%
%TO.N,Net-(D8-DOUT)*%
X166150000Y-57100000D03*
%TO.P,D9,3,VDD_3*%
%TO.N,VCC*%
X161250000Y-57100000D03*
%TO.P,D9,4,DOUT_4*%
%TO.N,Net-(D10-DIN)*%
X161250000Y-53800000D03*
%TD*%
D11*
%TO.P,D8,1,VSS_1*%
%TO.N,GND*%
X86250000Y-103000000D03*
%TO.P,D8,2,DIN_2*%
%TO.N,LEDPIN*%
X89550000Y-103000000D03*
%TO.P,D8,3,VDD_3*%
%TO.N,VCC*%
X89550000Y-107900000D03*
%TO.P,D8,4,DOUT_4*%
%TO.N,Net-(D8-DOUT)*%
X86250000Y-107900000D03*
%TD*%
%TO.P,D2,1,VSS_1*%
%TO.N,GND*%
X85700000Y-85175000D03*
%TO.P,D2,2,DIN_2*%
%TO.N,Net-(D10-DOUT)*%
X89000000Y-85175000D03*
%TO.P,D2,3,VDD_3*%
%TO.N,VCC*%
X89000000Y-90075000D03*
%TO.P,D2,4,DOUT_4*%
%TO.N,unconnected-(D2-DOUT-Pad4)*%
X85700000Y-90075000D03*
%TD*%
D12*
%TO.P,SW1,2,2_2*%
%TO.N,Net-(D99-A)*%
X114770000Y-79460000D03*
%TO.P,SW1,1,1_1*%
%TO.N,Column 1*%
X121120000Y-76920000D03*
%TD*%
%TO.P,SW2,2,2_2*%
%TO.N,Net-(D1-A)*%
X114790000Y-98585000D03*
%TO.P,SW2,1,1_1*%
%TO.N,Column 1*%
X121140000Y-96045000D03*
%TD*%
%TO.P,SW3,2,2_2*%
%TO.N,Net-(D5-A)*%
X133890000Y-79485000D03*
%TO.P,SW3,1,1_1*%
%TO.N,Column 2*%
X140240000Y-76945000D03*
%TD*%
D13*
%TO.P,SW4,S2,S2_S2*%
%TO.N,EC11SWA*%
X164750000Y-61500000D03*
%TO.P,SW4,S1,S1_S1*%
%TO.N,EC11SWB*%
X164750000Y-66500000D03*
D14*
%TO.P,SW4,MP*%
%TO.N,N/C*%
X157750000Y-69600000D03*
X157750000Y-58400000D03*
D13*
%TO.P,SW4,C,C_C*%
%TO.N,GND*%
X150250000Y-64000000D03*
%TO.P,SW4,B,B_B*%
%TO.N,EC11B*%
X150250000Y-66500000D03*
D15*
%TO.P,SW4,A,A_A*%
%TO.N,EC11A*%
X150250000Y-61500000D03*
%TD*%
D12*
%TO.P,SW5,2,2_2*%
%TO.N,Net-(D6-A)*%
X153090000Y-79535000D03*
%TO.P,SW5,1,1_1*%
%TO.N,Column 3*%
X159440000Y-76995000D03*
%TD*%
%TO.P,SW6,2,2_2*%
%TO.N,Net-(D3-A)*%
X153140000Y-98610000D03*
%TO.P,SW6,1,1_1*%
%TO.N,Column 3*%
X159490000Y-96070000D03*
%TD*%
%TO.P,SW9,2,2_2*%
%TO.N,Net-(D22-A)*%
X133965000Y-98585000D03*
%TO.P,SW9,1,1_1*%
%TO.N,Column 2*%
X140315000Y-96045000D03*
%TD*%
D16*
%TO.P,J2,1,Pin_1_1*%
%TO.N,GND*%
X110725000Y-57415000D03*
D17*
%TO.P,J2,2,Pin_2_2*%
%TO.N,VCC*%
X110725000Y-59955000D03*
%TO.P,J2,3,Pin_3_3*%
%TO.N,SDA*%
X110725000Y-62495000D03*
%TO.P,J2,4,Pin_4_4*%
%TO.N,SCL*%
X110725000Y-65035000D03*
%TD*%
D18*
%TO.P,U1,1,PA02_A0_D0_1*%
%TO.N,Column 1*%
X88375000Y-55880000D03*
D19*
%TO.P,U1,2,PA4_A1_D1_2*%
%TO.N,Column 2*%
X88375000Y-58420000D03*
%TO.P,U1,3,PA10_A2_D2_3*%
%TO.N,Column 3*%
X88375000Y-60960000D03*
%TO.P,U1,4,PA11_A3_D3_4*%
%TO.N,Row 2*%
X88375000Y-63500000D03*
%TO.P,U1,5,PA8_A4_D4_SDA_5*%
%TO.N,SDA*%
X88375000Y-66040000D03*
%TO.P,U1,6,PA9_A5_D5_SCL_6*%
%TO.N,SCL*%
X88375000Y-68580000D03*
%TO.P,U1,7,PB08_A6_D6_TX_7*%
%TO.N,Row 1*%
X88375000Y-71120000D03*
%TO.P,U1,8,PB09_A7_D7_RX_8*%
%TO.N,EC11B*%
X105625000Y-71120000D03*
%TO.P,U1,9,PA7_A8_D8_SCK_9*%
%TO.N,EC11A*%
X105625000Y-68580000D03*
%TO.P,U1,10,PA5_A9_D9_MISO_10*%
%TO.N,EC11SWB*%
X105625000Y-66040000D03*
D20*
%TO.P,U1,11,PA6_A10_D10_MOSI_11*%
%TO.N,LEDPIN*%
X105625000Y-63500000D03*
%TO.P,U1,12,3V3_12*%
%TO.N,unconnected-(U1-3V3-Pad12)*%
X105625000Y-60960000D03*
%TO.P,U1,13,GND_13*%
%TO.N,GND*%
X105625000Y-58420000D03*
%TO.P,U1,14,5V_14*%
%TO.N,VCC*%
X105625000Y-55880000D03*
%TD*%
D21*
%TO.P,D3,1,K_1*%
%TO.N,Row 2*%
X99165000Y-95250000D03*
D22*
%TO.P,D3,2,A_2*%
%TO.N,Net-(D3-A)*%
X106785000Y-95250000D03*
%TD*%
D21*
%TO.P,D5,1,K_1*%
%TO.N,Row 1*%
X99165000Y-98800000D03*
D22*
%TO.P,D5,2,A_2*%
%TO.N,Net-(D5-A)*%
X106785000Y-98800000D03*
%TD*%
D21*
%TO.P,D7,1,K_1*%
%TO.N,Row 1*%
X145590000Y-55550000D03*
D22*
%TO.P,D7,2,A_2*%
%TO.N,EC11SWA*%
X153210000Y-55550000D03*
%TD*%
D21*
%TO.P,D22,1,K_1*%
%TO.N,Row 2*%
X99190000Y-105500000D03*
D22*
%TO.P,D22,2,A_2*%
%TO.N,Net-(D22-A)*%
X106810000Y-105500000D03*
%TD*%
D21*
%TO.P,D99,1,K_1*%
%TO.N,Row 1*%
X99015000Y-88675000D03*
D22*
%TO.P,D99,2,A_2*%
%TO.N,Net-(D99-A)*%
X106635000Y-88675000D03*
%TD*%
D21*
%TO.P,D6,1,K_1*%
%TO.N,Row 1*%
X99165000Y-102350000D03*
D22*
%TO.P,D6,2,A_2*%
%TO.N,Net-(D6-A)*%
X106785000Y-102350000D03*
%TD*%
D21*
%TO.P,D1,1,K_1*%
%TO.N,Row 2*%
X99165000Y-91700000D03*
D22*
%TO.P,D1,2,A_2*%
%TO.N,Net-(D1-A)*%
X106785000Y-91700000D03*
%TD*%
D23*
%TO.N,VCC*%
X114125000Y-60125000D03*
X113825000Y-62400000D03*
X100675000Y-77075000D03*
X95750000Y-84700000D03*
%TO.N,GND*%
X94200000Y-77550000D03*
X91725000Y-80475000D03*
%TO.N,LEDPIN*%
X99525000Y-68925000D03*
X93350000Y-87975000D03*
X97350000Y-77000000D03*
X93775000Y-82300000D03*
X89475000Y-92725000D03*
%TO.N,Row 2*%
X90050000Y-79525000D03*
%TO.N,Row 1*%
X102325000Y-77750000D03*
X133350000Y-62675000D03*
%TO.N,EC11SWB*%
X143600000Y-67175000D03*
%TD*%
%TO.N,VCC*%
D24*
X113825000Y-60125000D02*
X113655000Y-59955000D01*
X114125000Y-60125000D02*
X113825000Y-60125000D01*
X113655000Y-59955000D02*
X110725000Y-59955000D01*
X113825000Y-65550000D02*
X113825000Y-62400000D01*
X102300000Y-77075000D02*
X113825000Y-65550000D01*
X100675000Y-77075000D02*
X102300000Y-77075000D01*
X95750000Y-87180000D02*
X95750000Y-84700000D01*
X89000000Y-90075000D02*
X92855000Y-90075000D01*
X92855000Y-90075000D02*
X95750000Y-87180000D01*
%TO.N,GND*%
X96271346Y-58420000D02*
X104625000Y-58420000D01*
X89801346Y-64890000D02*
X96271346Y-58420000D01*
X86948654Y-64890000D02*
X89801346Y-64890000D01*
X86948654Y-69730000D02*
X86275000Y-69056346D01*
X89801346Y-69730000D02*
X86948654Y-69730000D01*
X94200000Y-77550000D02*
X94200000Y-74128654D01*
X86275000Y-69056346D02*
X86275000Y-65563654D01*
X94200000Y-74128654D02*
X89801346Y-69730000D01*
X86750000Y-86225000D02*
X89524036Y-86225000D01*
X91725000Y-84024036D02*
X91725000Y-80475000D01*
X85700000Y-85175000D02*
X86750000Y-86225000D01*
X86275000Y-65563654D02*
X86948654Y-64890000D01*
X89524036Y-86225000D02*
X91725000Y-84024036D01*
X109575000Y-58565000D02*
X110725000Y-57415000D01*
X110248654Y-61105000D02*
X109575000Y-60431346D01*
X109575000Y-60431346D02*
X109575000Y-58565000D01*
X119720000Y-61105000D02*
X110248654Y-61105000D01*
X125800000Y-55025000D02*
X119720000Y-61105000D01*
%TO.N,VCC*%
X126175000Y-53050000D02*
X120900000Y-58325000D01*
X162300000Y-53275964D02*
X162074036Y-53050000D01*
X162074036Y-53050000D02*
X126175000Y-53050000D01*
X162300000Y-56050000D02*
X162300000Y-53275964D01*
X161250000Y-57100000D02*
X162300000Y-56050000D01*
X112355000Y-58325000D02*
X110725000Y-59955000D01*
X120900000Y-58325000D02*
X112355000Y-58325000D01*
%TO.N,GND*%
X144425000Y-65300000D02*
X148950000Y-65300000D01*
X140437258Y-61312258D02*
X144425000Y-65300000D01*
X148950000Y-65300000D02*
X150250000Y-64000000D01*
X127213222Y-61312258D02*
X140437258Y-61312258D01*
X124750000Y-58849036D02*
X127213222Y-61312258D01*
X124750000Y-56075000D02*
X124750000Y-58849036D01*
X125800000Y-55025000D02*
X124750000Y-56075000D01*
%TO.N,Net-(D10-DIN)*%
X134375000Y-58325000D02*
X125800000Y-58325000D01*
X161250000Y-53800000D02*
X138900000Y-53800000D01*
X138900000Y-53800000D02*
X134375000Y-58325000D01*
%TO.N,GND*%
X155950000Y-64000000D02*
X150250000Y-64000000D01*
X166150000Y-53800000D02*
X155950000Y-64000000D01*
%TO.N,Net-(D8-DOUT)*%
X166150000Y-109375000D02*
X166150000Y-57100000D01*
X166650000Y-109875000D02*
X166150000Y-109375000D01*
X88225000Y-109875000D02*
X166650000Y-109875000D01*
X86250000Y-107900000D02*
X88225000Y-109875000D01*
%TO.N,Net-(D10-DOUT)*%
X85575000Y-52425000D02*
X116750000Y-52425000D01*
X84850000Y-53150000D02*
X85575000Y-52425000D01*
X119350000Y-55025000D02*
X120900000Y-55025000D01*
X84850000Y-81025000D02*
X84850000Y-53150000D01*
X89000000Y-85175000D02*
X84850000Y-81025000D01*
X116750000Y-52425000D02*
X119350000Y-55025000D01*
%TO.N,LEDPIN*%
X99525000Y-74825000D02*
X99525000Y-68925000D01*
X97350000Y-77000000D02*
X99525000Y-74825000D01*
X93350000Y-82725000D02*
X93775000Y-82300000D01*
X93350000Y-87975000D02*
X93350000Y-82725000D01*
X88250000Y-93950000D02*
X89475000Y-92725000D01*
X88250000Y-101700000D02*
X88250000Y-93950000D01*
X89550000Y-103000000D02*
X88250000Y-101700000D01*
%TO.N,VCC*%
X92300000Y-93375000D02*
X89000000Y-90075000D01*
X89550000Y-107900000D02*
X92300000Y-105150000D01*
X92300000Y-105150000D02*
X92300000Y-93375000D01*
%TO.N,GND*%
X84150000Y-91575000D02*
X84150000Y-86725000D01*
X86250000Y-93675000D02*
X84150000Y-91575000D01*
X84150000Y-86725000D02*
X85700000Y-85175000D01*
X86250000Y-103000000D02*
X86250000Y-93675000D01*
X105630000Y-57415000D02*
X104625000Y-58420000D01*
X110725000Y-57415000D02*
X105630000Y-57415000D01*
%TO.N,SDA*%
X110725000Y-62495000D02*
X108375000Y-64845000D01*
X90570000Y-64845000D02*
X89375000Y-66040000D01*
X108375000Y-64845000D02*
X90570000Y-64845000D01*
%TO.N,SCL*%
X90525000Y-67430000D02*
X89375000Y-68580000D01*
X108330000Y-67430000D02*
X90525000Y-67430000D01*
X110725000Y-65035000D02*
X108330000Y-67430000D01*
%TO.N,Row 2*%
X90050000Y-77175000D02*
X85525000Y-72650000D01*
X85525000Y-72650000D02*
X85525000Y-64275000D01*
X88600000Y-64275000D02*
X89375000Y-63500000D01*
X90050000Y-79525000D02*
X90050000Y-77175000D01*
X85525000Y-64275000D02*
X88600000Y-64275000D01*
%TO.N,Row 1*%
X99165000Y-98800000D02*
X98065000Y-97700000D01*
X98065000Y-97700000D02*
X98065000Y-89625000D01*
X99015000Y-85240000D02*
X87175000Y-73400000D01*
X87175000Y-73400000D02*
X87175000Y-73320000D01*
X122525000Y-73500000D02*
X133350000Y-62675000D01*
X87175000Y-73320000D02*
X89375000Y-71120000D01*
X98065000Y-89625000D02*
X99015000Y-88675000D01*
X102325000Y-77750000D02*
X106575000Y-73500000D01*
X106575000Y-73500000D02*
X122525000Y-73500000D01*
X99165000Y-102350000D02*
X99165000Y-98800000D01*
X99015000Y-88675000D02*
X99015000Y-85240000D01*
%TO.N,EC11SWB*%
X163325000Y-67925000D02*
X164750000Y-66500000D01*
X143600000Y-67175000D02*
X145000000Y-68575000D01*
X145000000Y-68575000D02*
X153925000Y-68575000D01*
X153925000Y-68575000D02*
X154575000Y-67925000D01*
X154575000Y-67925000D02*
X163325000Y-67925000D01*
%TO.N,Net-(D5-A)*%
X133890000Y-79485000D02*
X131910101Y-79485000D01*
X131910101Y-79485000D02*
X112595101Y-98800000D01*
X112595101Y-98800000D02*
X106785000Y-98800000D01*
%TO.N,Net-(D6-A)*%
X143572944Y-79535000D02*
X124332944Y-98775000D01*
X153090000Y-79535000D02*
X143572944Y-79535000D01*
X124332944Y-98775000D02*
X117567056Y-98775000D01*
X113992056Y-102350000D02*
X106785000Y-102350000D01*
X117567056Y-98775000D02*
X113992056Y-102350000D01*
%TD*%
M02*
